<svg width="176" height="39" viewBox="0 0 176 39" fill="none" xmlns="http://www.w3.org/2000/svg">
<g id="logo">
<g id="Group 2">
<rect id="Rectangle 2" x="24.3289" y="0.731995" width="18.7144" height="37.4289" rx="0.831162" fill="white"/>
<path id="Rectangle 3 (Stroke)" fill-rule="evenodd" clip-rule="evenodd" d="M15.7646 22.3963H2.94982V35.2111H15.7646V22.3963ZM0 19.4464V38.1609H18.7144V19.4464H0Z" fill="white"/>
</g>
<g id="Smart">
<path d="M60.8944 16.6459C60.0192 16.6459 59.1751 16.5599 58.3624 16.388C57.5653 16.216 56.8541 15.9425 56.2289 15.5674C55.6037 15.1766 55.1036 14.6765 54.7284 14.0669C54.369 13.4573 54.1892 12.7071 54.1892 11.8162C54.1892 11.7381 54.1892 11.6599 54.1892 11.5818C54.2048 11.5036 54.2127 11.4255 54.2127 11.3473H56.4634C56.4634 11.3942 56.4555 11.4724 56.4399 11.5818C56.4399 11.6755 56.4399 11.7615 56.4399 11.8397C56.4399 12.4648 56.6275 12.9963 57.0026 13.4339C57.3777 13.8715 57.8935 14.1998 58.55 14.4186C59.222 14.6218 59.9801 14.7234 60.8241 14.7234C61.1992 14.7234 61.59 14.6999 61.9963 14.653C62.4184 14.6061 62.8169 14.528 63.192 14.4186C63.5828 14.2935 63.9266 14.1372 64.2236 13.9497C64.5362 13.7465 64.7785 13.5042 64.9504 13.2229C65.138 12.9259 65.2317 12.5664 65.2317 12.1444C65.2317 11.613 65.0754 11.1754 64.7628 10.8315C64.4659 10.472 64.0673 10.1829 63.5672 9.96407C63.067 9.72962 62.4965 9.52643 61.8557 9.3545C61.2305 9.16694 60.5818 8.9872 59.9098 8.81527C59.2377 8.64334 58.5812 8.44796 57.9404 8.22915C57.3152 7.9947 56.7525 7.71336 56.2524 7.38513C55.7522 7.04127 55.3458 6.61926 55.0332 6.11911C54.7363 5.61895 54.5878 5.00939 54.5878 4.29041C54.5878 3.61832 54.7206 3.01657 54.9863 2.48515C55.2677 1.95374 55.6741 1.50829 56.2055 1.1488C56.7525 0.77368 57.4246 0.492341 58.2217 0.304782C59.0189 0.101594 59.9332 0 60.9648 0C61.8088 0 62.5903 0.093779 63.3093 0.281337C64.0439 0.453267 64.6847 0.72679 65.2317 1.10191C65.7944 1.4614 66.2321 1.92248 66.5447 2.48515C66.8573 3.04783 67.0135 3.72773 67.0135 4.52486V4.8062H64.8097V4.45452C64.8097 3.92311 64.6456 3.46984 64.3174 3.09472C63.9892 2.7196 63.5359 2.43045 62.9576 2.22726C62.3949 2.02407 61.7541 1.92248 61.0351 1.92248C60.0973 1.92248 59.3158 2.01626 58.6906 2.20382C58.0654 2.37575 57.5965 2.63364 57.2839 2.9775C56.987 3.30572 56.8385 3.68084 56.8385 4.10285C56.8385 4.58738 56.987 4.99375 57.2839 5.32198C57.5965 5.65021 58.0029 5.92373 58.5031 6.14255C59.0032 6.34574 59.5737 6.5333 60.2145 6.70523C60.8554 6.87716 61.504 7.0569 62.1605 7.24446C62.8325 7.41639 63.4812 7.61958 64.1064 7.85403C64.7472 8.07285 65.3177 8.35418 65.8179 8.69804C66.3336 9.02627 66.74 9.44828 67.037 9.96407C67.334 10.4642 67.4824 11.0816 67.4824 11.8162C67.4824 12.9572 67.2011 13.8872 66.6384 14.6061C66.0758 15.3095 65.3021 15.8253 64.3174 16.1535C63.3327 16.4817 62.1917 16.6459 60.8944 16.6459Z" fill="white"/>
<path d="M70.7144 16.3645V4.03252H72.3789L72.5665 5.88466H72.7306C73.0432 5.3845 73.3949 4.97812 73.7856 4.66553C74.1764 4.35293 74.6062 4.12629 75.0751 3.98563C75.544 3.82933 76.052 3.75118 76.599 3.75118C77.3961 3.75118 78.0839 3.91529 78.6622 4.24352C79.2405 4.55612 79.6703 5.10316 79.9516 5.88466H80.0923C80.3893 5.3845 80.7331 4.98594 81.1239 4.68897C81.5146 4.37637 81.9523 4.14192 82.4368 3.98563C82.9213 3.82933 83.4371 3.75118 83.9841 3.75118C84.7344 3.75118 85.3908 3.88403 85.9535 4.14974C86.5162 4.39982 86.9538 4.82183 87.2664 5.41576C87.5947 5.99407 87.7588 6.77556 87.7588 7.76025V16.3645H85.6956V8.08848C85.6956 7.58832 85.6331 7.17413 85.5081 6.8459C85.3987 6.51767 85.2345 6.26759 85.0157 6.09566C84.7969 5.9081 84.539 5.77525 84.242 5.6971C83.9607 5.61895 83.6559 5.57988 83.3277 5.57988C82.7806 5.57988 82.2727 5.72055 81.8038 6.00188C81.3505 6.28322 80.9832 6.6896 80.7019 7.22102C80.4205 7.75243 80.2799 8.38544 80.2799 9.12005V16.3645H78.2167V8.08848C78.2167 7.58832 78.1542 7.17413 78.0292 6.8459C77.9041 6.51767 77.74 6.26759 77.5368 6.09566C77.3336 5.9081 77.0835 5.77525 76.7866 5.6971C76.5052 5.61895 76.2083 5.57988 75.8957 5.57988C75.333 5.57988 74.8094 5.72055 74.3249 6.00188C73.856 6.28322 73.4809 6.6896 73.1995 7.22102C72.9182 7.75243 72.7775 8.38544 72.7775 9.12005V16.3645H70.7144Z" fill="white"/>
<path d="M94.3316 16.6459C93.8783 16.6459 93.425 16.5911 92.9718 16.4817C92.5185 16.3723 92.0965 16.1926 91.7057 15.9425C91.315 15.6924 91.0024 15.3486 90.768 14.9109C90.5335 14.4577 90.4163 13.895 90.4163 13.2229C90.4163 12.3789 90.6195 11.6834 91.0258 11.1363C91.4322 10.5893 91.9949 10.1673 92.7139 9.87029C93.4485 9.55769 94.3159 9.34668 95.3163 9.23727C96.3166 9.11224 97.4029 9.04972 98.5751 9.04972V7.64302C98.5751 7.18976 98.4969 6.79901 98.3406 6.47078C98.1843 6.14255 97.903 5.89247 97.4966 5.72055C97.1059 5.53299 96.5432 5.43921 95.8086 5.43921C95.1053 5.43921 94.5426 5.53299 94.1206 5.72055C93.7142 5.89247 93.425 6.11911 93.2531 6.40045C93.0968 6.68178 93.0187 6.99438 93.0187 7.33824V7.68991H91.0258C91.0102 7.61176 91.0024 7.53361 91.0024 7.45546C91.0024 7.37732 91.0024 7.28354 91.0024 7.17413C91.0024 6.42389 91.2056 5.7987 91.612 5.29854C92.034 4.78275 92.6201 4.39982 93.3703 4.14974C94.1206 3.88403 94.9802 3.75118 95.9493 3.75118C96.9808 3.75118 97.8405 3.89966 98.5282 4.19663C99.2316 4.4936 99.7551 4.91561 100.099 5.46265C100.458 6.0097 100.638 6.66616 100.638 7.43202V14.1138C100.638 14.4108 100.709 14.6218 100.849 14.7468C100.99 14.8562 101.162 14.9109 101.365 14.9109H102.279V16.2707C102.061 16.3645 101.818 16.4427 101.553 16.5052C101.287 16.5833 100.982 16.6224 100.638 16.6224C100.232 16.6224 99.8958 16.5364 99.6301 16.3645C99.3644 16.2082 99.1612 15.9894 99.0205 15.7081C98.8799 15.4111 98.7861 15.0829 98.7392 14.7234H98.5751C98.2938 15.1141 97.9343 15.458 97.4966 15.7549C97.0746 16.0363 96.5979 16.2551 96.0665 16.4114C95.5351 16.5677 94.9568 16.6459 94.3316 16.6459ZM94.8474 14.9109C95.3475 14.9109 95.8164 14.8328 96.2541 14.6765C96.7073 14.5202 97.1059 14.3014 97.4497 14.02C97.7936 13.7231 98.0671 13.3714 98.2703 12.965C98.4735 12.5586 98.5751 12.1132 98.5751 11.6287V10.5971C97.3091 10.5971 96.2306 10.6674 95.3397 10.8081C94.4488 10.9487 93.7611 11.1988 93.2766 11.5583C92.8077 11.9178 92.5732 12.4258 92.5732 13.0822C92.5732 13.5042 92.667 13.8481 92.8545 14.1138C93.0421 14.3795 93.3078 14.5827 93.6517 14.7234C93.9955 14.8484 94.3941 14.9109 94.8474 14.9109Z" fill="white"/>
<path d="M104.364 16.3645V4.03252H106.029L106.216 6.07222H106.38C106.505 5.68147 106.677 5.31417 106.896 4.97031C107.115 4.61082 107.412 4.32167 107.787 4.10285C108.162 3.8684 108.623 3.75118 109.17 3.75118C109.405 3.75118 109.616 3.77462 109.803 3.82151C110.007 3.85277 110.155 3.89185 110.249 3.93874V5.83777H109.475C108.944 5.83777 108.483 5.93155 108.092 6.11911C107.717 6.29104 107.404 6.54112 107.154 6.86934C106.904 7.19757 106.716 7.58832 106.591 8.04159C106.482 8.49485 106.427 8.97938 106.427 9.49517V16.3645H104.364Z" fill="white"/>
<path d="M115.384 16.6459C114.743 16.6459 114.243 16.5286 113.883 16.2942C113.524 16.0441 113.266 15.7237 113.11 15.3329C112.954 14.9266 112.875 14.4967 112.875 14.0435V5.76744H111.281V4.03252H112.922L113.297 0.586121H114.939V4.03252H117.26V5.76744H114.939V13.7387C114.939 14.1294 115.009 14.4264 115.15 14.6296C115.29 14.8172 115.556 14.9109 115.947 14.9109H117.26V16.2707C117.103 16.3489 116.916 16.4114 116.697 16.4583C116.478 16.5052 116.251 16.5443 116.017 16.5755C115.798 16.6224 115.587 16.6459 115.384 16.6459Z" fill="white"/>
</g>
<g id="Business">
<path d="M54.033 37.7345V21.6279H65.9429C66.8026 21.6279 67.5763 21.7998 68.264 22.1437C68.9517 22.4719 69.4909 22.933 69.8817 23.5269C70.2881 24.1208 70.4913 24.8164 70.4913 25.6135C70.4913 26.2543 70.3662 26.8248 70.1161 27.325C69.8817 27.8251 69.5613 28.2393 69.1549 28.5675C68.7485 28.8958 68.2952 29.138 67.7951 29.2943V29.3881C68.389 29.5132 68.9204 29.7476 69.3893 30.0915C69.8739 30.4353 70.249 30.8808 70.5147 31.4278C70.796 31.9592 70.9367 32.5922 70.9367 33.3269C70.9367 34.2959 70.7101 35.1087 70.2568 35.7651C69.8192 36.4216 69.2252 36.9139 68.475 37.2421C67.7248 37.5704 66.8886 37.7345 65.9664 37.7345H54.033ZM57.9483 34.6632H65.0052C65.5522 34.6632 66.0055 34.5147 66.365 34.2178C66.7244 33.9208 66.9042 33.4519 66.9042 32.8111C66.9042 32.4672 66.826 32.1546 66.6697 31.8733C66.5291 31.5919 66.3103 31.3809 66.0133 31.2403C65.7163 31.084 65.3334 31.0058 64.8645 31.0058H57.9483V34.6632ZM57.9483 28.0752H64.5831C64.9895 28.0752 65.3334 28.0049 65.6147 27.8642C65.8961 27.7079 66.1071 27.5047 66.2477 27.2546C66.404 26.9889 66.4822 26.692 66.4822 26.3637C66.4822 25.8011 66.3181 25.379 65.9898 25.0977C65.6616 24.8007 65.2318 24.6523 64.7004 24.6523H57.9483V28.0752Z" fill="white"/>
<path d="M78.9871 38.0158C77.3459 38.0158 76.0956 37.6173 75.2359 36.8201C74.3919 36.023 73.9699 34.7882 73.9699 33.1158V25.379H77.5335V32.5532C77.5335 33.0221 77.596 33.4206 77.7211 33.7489C77.8617 34.0771 78.0493 34.3428 78.2837 34.546C78.5182 34.7492 78.8073 34.8977 79.1512 34.9914C79.4951 35.0852 79.8702 35.1321 80.2765 35.1321C80.9017 35.1321 81.4722 35.0071 81.988 34.757C82.5194 34.4913 82.9414 34.1318 83.254 33.6785C83.5666 33.2096 83.7229 32.6704 83.7229 32.0608V25.379H87.31V37.7345H84.4028L84.1449 35.7417H83.9574C83.551 36.2887 83.0743 36.7264 82.5273 37.0546C81.9958 37.3828 81.4253 37.6251 80.8158 37.7814C80.2218 37.9377 79.6123 38.0158 78.9871 38.0158Z" fill="white"/>
<path d="M96.8566 38.0158C95.9501 38.0158 95.0905 37.9377 94.2777 37.7814C93.465 37.6251 92.746 37.3906 92.1208 37.078C91.5112 36.7654 91.0267 36.3747 90.6672 35.9058C90.3077 35.4213 90.128 34.8586 90.128 34.2178C90.128 34.1396 90.128 34.0771 90.128 34.0302C90.1436 33.9677 90.1592 33.9052 90.1749 33.8426H93.7854C93.7854 33.8739 93.7775 33.913 93.7619 33.9599C93.7619 33.9911 93.7619 34.0224 93.7619 34.0536C93.7775 34.4288 93.926 34.7335 94.2074 34.968C94.5043 35.1868 94.8873 35.3509 95.3562 35.4603C95.8407 35.5541 96.3487 35.601 96.8801 35.601C97.3959 35.601 97.896 35.5697 98.3806 35.5072C98.8651 35.4291 99.2636 35.304 99.5762 35.1321C99.8888 34.9445 100.045 34.6788 100.045 34.335C100.045 33.9442 99.8576 33.6629 99.4825 33.491C99.1073 33.319 98.5837 33.1862 97.9117 33.0924C97.2396 32.983 96.4659 32.858 95.5906 32.7173C94.9029 32.6079 94.2543 32.4672 93.6447 32.2953C93.0351 32.1233 92.4959 31.9045 92.027 31.6388C91.5581 31.3575 91.1908 31.0058 90.9251 30.5838C90.6594 30.1462 90.5265 29.6069 90.5265 28.9661C90.5265 28.2784 90.6828 27.6923 90.9954 27.2077C91.3237 26.7076 91.7769 26.309 92.3552 26.0121C92.9335 25.6995 93.6213 25.4728 94.4184 25.3322C95.2155 25.1759 96.0908 25.0977 97.0442 25.0977C97.9038 25.0977 98.701 25.1759 99.4356 25.3322C100.186 25.4728 100.842 25.6916 101.405 25.9886C101.983 26.2699 102.429 26.6294 102.741 27.0671C103.07 27.5047 103.234 28.0127 103.234 28.591C103.234 28.6535 103.234 28.7238 103.234 28.802C103.234 28.8645 103.226 28.9192 103.21 28.9661H99.6231V28.8254C99.6231 28.5285 99.4981 28.2862 99.248 28.0986C99.0136 27.8955 98.6932 27.747 98.2868 27.6532C97.896 27.5594 97.4662 27.5125 96.9973 27.5125C96.7785 27.5125 96.505 27.5282 96.1767 27.5594C95.8641 27.575 95.5437 27.6219 95.2155 27.7001C94.9029 27.7782 94.6372 27.8876 94.4184 28.0283C94.1996 28.1534 94.0901 28.3409 94.0901 28.591C94.0901 28.9036 94.2621 29.138 94.6059 29.2943C94.9654 29.4506 95.4265 29.5757 95.9892 29.6695C96.5675 29.7476 97.1927 29.8414 97.8648 29.9508C98.5837 30.0602 99.2871 30.1852 99.9748 30.3259C100.678 30.4666 101.296 30.6698 101.827 30.9355C102.374 31.2012 102.812 31.5685 103.14 32.0374C103.468 32.5063 103.632 33.1237 103.632 33.8895C103.632 34.6554 103.468 35.304 103.14 35.8355C102.812 36.3669 102.351 36.7967 101.757 37.1249C101.163 37.4375 100.452 37.6642 99.6231 37.8048C98.7948 37.9455 97.8726 38.0158 96.8566 38.0158Z" fill="white"/>
<path d="M106.477 23.5035V20.7604H110.064V23.5035H106.477ZM106.477 37.7345V25.379H110.064V37.7345H106.477Z" fill="white"/>
<path d="M113.559 37.7345V25.379H116.467L116.725 27.3719H116.936C117.342 26.8248 117.811 26.3872 118.342 26.0589C118.874 25.7307 119.444 25.4885 120.054 25.3322C120.679 25.1759 121.296 25.0977 121.906 25.0977C123 25.0977 123.914 25.2774 124.649 25.6369C125.399 25.9808 125.962 26.5122 126.337 27.2312C126.712 27.9502 126.9 28.8723 126.9 29.9977V37.7345H123.336V30.5604C123.336 30.0915 123.273 29.6929 123.148 29.3647C123.023 29.0364 122.836 28.7707 122.586 28.5675C122.351 28.3644 122.062 28.2159 121.718 28.1221C121.39 28.0283 121.015 27.9814 120.593 27.9814C119.968 27.9814 119.389 28.1143 118.858 28.38C118.342 28.6301 117.928 28.9896 117.615 29.4584C117.303 29.9117 117.147 30.4431 117.147 31.0527V37.7345H113.559Z" fill="white"/>
<path d="M137.383 38.0158C135.82 38.0158 134.476 37.7892 133.351 37.3359C132.226 36.867 131.358 36.1559 130.749 35.2024C130.139 34.249 129.834 33.0377 129.834 31.5685C129.834 30.1149 130.131 28.9114 130.725 27.958C131.319 26.9889 132.171 26.2699 133.281 25.8011C134.39 25.3322 135.711 25.0977 137.243 25.0977C138.821 25.0977 140.15 25.3322 141.228 25.8011C142.323 26.2699 143.143 26.9655 143.69 27.8876C144.253 28.8098 144.534 29.9586 144.534 31.334V32.3656H133.562C133.593 33.0846 133.765 33.6785 134.078 34.1474C134.39 34.6007 134.828 34.9367 135.391 35.1556C135.969 35.3587 136.649 35.4603 137.43 35.4603C137.805 35.4603 138.188 35.4213 138.579 35.3431C138.97 35.2493 139.329 35.1243 139.658 34.968C139.986 34.7961 140.259 34.5851 140.478 34.335C140.697 34.0693 140.822 33.7645 140.853 33.4206H144.464C144.464 34.1083 144.3 34.7335 143.971 35.2962C143.643 35.8589 143.167 36.3434 142.541 36.7498C141.916 37.1562 141.166 37.4688 140.291 37.6876C139.431 37.9064 138.462 38.0158 137.383 38.0158ZM133.562 30.1852H140.76C140.76 29.7632 140.674 29.3959 140.502 29.0833C140.33 28.7551 140.087 28.4894 139.775 28.2862C139.462 28.083 139.095 27.9267 138.673 27.8173C138.267 27.7079 137.821 27.6532 137.337 27.6532C136.602 27.6532 135.961 27.7548 135.414 27.958C134.883 28.1455 134.461 28.4347 134.148 28.8254C133.835 29.2006 133.64 29.6538 133.562 30.1852Z" fill="white"/>
<path d="M153.556 38.0158C152.649 38.0158 151.789 37.9377 150.977 37.7814C150.164 37.6251 149.445 37.3906 148.82 37.078C148.21 36.7654 147.726 36.3747 147.366 35.9058C147.007 35.4213 146.827 34.8586 146.827 34.2178C146.827 34.1396 146.827 34.0771 146.827 34.0302C146.843 33.9677 146.858 33.9052 146.874 33.8426H150.484C150.484 33.8739 150.477 33.913 150.461 33.9599C150.461 33.9911 150.461 34.0224 150.461 34.0536C150.477 34.4288 150.625 34.7335 150.906 34.968C151.203 35.1868 151.586 35.3509 152.055 35.4603C152.54 35.5541 153.048 35.601 153.579 35.601C154.095 35.601 154.595 35.5697 155.08 35.5072C155.564 35.4291 155.963 35.304 156.275 35.1321C156.588 34.9445 156.744 34.6788 156.744 34.335C156.744 33.9442 156.557 33.6629 156.181 33.491C155.806 33.319 155.283 33.1862 154.611 33.0924C153.939 32.983 153.165 32.858 152.29 32.7173C151.602 32.6079 150.953 32.4672 150.344 32.2953C149.734 32.1233 149.195 31.9045 148.726 31.6388C148.257 31.3575 147.89 31.0058 147.624 30.5838C147.358 30.1462 147.226 29.6069 147.226 28.9661C147.226 28.2784 147.382 27.6923 147.694 27.2077C148.023 26.7076 148.476 26.309 149.054 26.0121C149.633 25.6995 150.32 25.4728 151.117 25.3322C151.915 25.1759 152.79 25.0977 153.743 25.0977C154.603 25.0977 155.4 25.1759 156.135 25.3322C156.885 25.4728 157.541 25.6916 158.104 25.9886C158.682 26.2699 159.128 26.6294 159.44 27.0671C159.769 27.5047 159.933 28.0127 159.933 28.591C159.933 28.6535 159.933 28.7238 159.933 28.802C159.933 28.8645 159.925 28.9192 159.909 28.9661H156.322V28.8254C156.322 28.5285 156.197 28.2862 155.947 28.0986C155.713 27.8955 155.392 27.747 154.986 27.6532C154.595 27.5594 154.165 27.5125 153.696 27.5125C153.478 27.5125 153.204 27.5282 152.876 27.5594C152.563 27.575 152.243 27.6219 151.915 27.7001C151.602 27.7782 151.336 27.8876 151.117 28.0283C150.899 28.1534 150.789 28.3409 150.789 28.591C150.789 28.9036 150.961 29.138 151.305 29.2943C151.664 29.4506 152.126 29.5757 152.688 29.6695C153.267 29.7476 153.892 29.8414 154.564 29.9508C155.283 30.0602 155.986 30.1852 156.674 30.3259C157.377 30.4666 157.995 30.6698 158.526 30.9355C159.073 31.2012 159.511 31.5685 159.839 32.0374C160.167 32.5063 160.331 33.1237 160.331 33.8895C160.331 34.6554 160.167 35.304 159.839 35.8355C159.511 36.3669 159.05 36.7967 158.456 37.1249C157.862 37.4375 157.151 37.6642 156.322 37.8048C155.494 37.9455 154.572 38.0158 153.556 38.0158Z" fill="white"/>
<path d="M169.224 38.0158C168.318 38.0158 167.458 37.9377 166.645 37.7814C165.833 37.6251 165.114 37.3906 164.488 37.078C163.879 36.7654 163.394 36.3747 163.035 35.9058C162.675 35.4213 162.496 34.8586 162.496 34.2178C162.496 34.1396 162.496 34.0771 162.496 34.0302C162.511 33.9677 162.527 33.9052 162.543 33.8426H166.153C166.153 33.8739 166.145 33.913 166.13 33.9599C166.13 33.9911 166.13 34.0224 166.13 34.0536C166.145 34.4288 166.294 34.7335 166.575 34.968C166.872 35.1868 167.255 35.3509 167.724 35.4603C168.208 35.5541 168.716 35.601 169.248 35.601C169.764 35.601 170.264 35.5697 170.748 35.5072C171.233 35.4291 171.631 35.304 171.944 35.1321C172.257 34.9445 172.413 34.6788 172.413 34.335C172.413 33.9442 172.225 33.6629 171.85 33.491C171.475 33.319 170.951 33.1862 170.279 33.0924C169.607 32.983 168.834 32.858 167.958 32.7173C167.271 32.6079 166.622 32.4672 166.012 32.2953C165.403 32.1233 164.864 31.9045 164.395 31.6388C163.926 31.3575 163.558 31.0058 163.293 30.5838C163.027 30.1462 162.894 29.6069 162.894 28.9661C162.894 28.2784 163.051 27.6923 163.363 27.2077C163.691 26.7076 164.145 26.309 164.723 26.0121C165.301 25.6995 165.989 25.4728 166.786 25.3322C167.583 25.1759 168.458 25.0977 169.412 25.0977C170.272 25.0977 171.069 25.1759 171.803 25.3322C172.553 25.4728 173.21 25.6916 173.773 25.9886C174.351 26.2699 174.796 26.6294 175.109 27.0671C175.437 27.5047 175.601 28.0127 175.601 28.591C175.601 28.6535 175.601 28.7238 175.601 28.802C175.601 28.8645 175.594 28.9192 175.578 28.9661H171.991V28.8254C171.991 28.5285 171.866 28.2862 171.616 28.0986C171.381 27.8955 171.061 27.747 170.654 27.6532C170.264 27.5594 169.834 27.5125 169.365 27.5125C169.146 27.5125 168.873 27.5282 168.544 27.5594C168.232 27.575 167.911 27.6219 167.583 27.7001C167.271 27.7782 167.005 27.8876 166.786 28.0283C166.567 28.1534 166.458 28.3409 166.458 28.591C166.458 28.9036 166.63 29.138 166.974 29.2943C167.333 29.4506 167.794 29.5757 168.357 29.6695C168.935 29.7476 169.56 29.8414 170.232 29.9508C170.951 30.0602 171.655 30.1852 172.342 30.3259C173.046 30.4666 173.663 30.6698 174.195 30.9355C174.742 31.2012 175.179 31.5685 175.508 32.0374C175.836 32.5063 176 33.1237 176 33.8895C176 34.6554 175.836 35.304 175.508 35.8355C175.179 36.3669 174.718 36.7967 174.124 37.1249C173.53 37.4375 172.819 37.6642 171.991 37.8048C171.162 37.9455 170.24 38.0158 169.224 38.0158Z" fill="white"/>
</g>
</g>
</svg>
