<svg width="180" height="48" viewBox="0 0 180 48" fill="none" xmlns="http://www.w3.org/2000/svg">
<rect x="28.3287" y="1.73199" width="18.7144" height="37.4289" rx="0.831162" fill="#1D63FF"/>
<g filter="url(#filter0_d_3537_312)">
<path fill-rule="evenodd" clip-rule="evenodd" d="M19.7646 23.3963H6.94982V36.2111H19.7646V23.3963ZM4 20.4464V39.1609H22.7144V20.4464H4Z" fill="#1D63FF"/>
<path d="M6.94982 22.8963H6.44982V23.3963V36.2111V36.7111H6.94982H19.7646H20.2646V36.2111V23.3963V22.8963H19.7646H6.94982ZM4.5 20.9464H22.2144V38.6609H4.5V20.9464Z" stroke="black"/>
</g>
<g filter="url(#filter1_d_3537_312)">
<mask id="path-4-outside-1_3537_312" maskUnits="userSpaceOnUse" x="57.1891" y="0" width="66" height="19" fill="black">
<rect fill="white" x="57.1891" width="66" height="19"/>
<path d="M64.8943 17.6459C64.019 17.6459 63.175 17.5599 62.3623 17.388C61.5651 17.216 60.854 16.9425 60.2288 16.5674C59.6036 16.1766 59.1034 15.6765 58.7283 15.0669C58.3688 14.4573 58.1891 13.7071 58.1891 12.8162C58.1891 12.7381 58.1891 12.6599 58.1891 12.5818C58.2047 12.5036 58.2125 12.4255 58.2125 12.3473H60.4632C60.4632 12.3942 60.4554 12.4724 60.4398 12.5818C60.4398 12.6755 60.4398 12.7615 60.4398 12.8397C60.4398 13.4648 60.6274 13.9963 61.0025 14.4339C61.3776 14.8715 61.8934 15.1998 62.5498 15.4186C63.2219 15.6218 63.98 15.7234 64.824 15.7234C65.1991 15.7234 65.5898 15.6999 65.9962 15.653C66.4182 15.6061 66.8168 15.528 67.1919 15.4186C67.5827 15.2935 67.9265 15.1373 68.2235 14.9497C68.5361 14.7465 68.7783 14.5042 68.9503 14.2229C69.1378 13.9259 69.2316 13.5664 69.2316 13.1444C69.2316 12.613 69.0753 12.1754 68.7627 11.8315C68.4658 11.472 68.0672 11.1829 67.567 10.9641C67.0669 10.7296 66.4964 10.5264 65.8556 10.3545C65.2304 10.1669 64.5817 9.9872 63.9096 9.81527C63.2375 9.64334 62.5811 9.44796 61.9403 9.22915C61.3151 8.9947 60.7524 8.71336 60.2522 8.38513C59.7521 8.04127 59.3457 7.61926 59.0331 7.11911C58.7361 6.61895 58.5876 6.00938 58.5876 5.29041C58.5876 4.61832 58.7205 4.01657 58.9862 3.48515C59.2676 2.95374 59.6739 2.50829 60.2053 2.1488C60.7524 1.77368 61.4245 1.49234 62.2216 1.30478C63.0187 1.10159 63.9331 1 64.9647 1C65.8087 1 66.5902 1.09378 67.3091 1.28134C68.0437 1.45327 68.6846 1.72679 69.2316 2.10191C69.7943 2.4614 70.2319 2.92248 70.5445 3.48515C70.8571 4.04783 71.0134 4.72773 71.0134 5.52486V5.8062H68.8096V5.45452C68.8096 4.92311 68.6455 4.46984 68.3173 4.09472C67.989 3.7196 67.5358 3.43045 66.9575 3.22726C66.3948 3.02407 65.754 2.92248 65.035 2.92248C64.0972 2.92248 63.3157 3.01626 62.6905 3.20382C62.0653 3.37575 61.5964 3.63364 61.2838 3.9775C60.9868 4.30572 60.8384 4.68084 60.8384 5.10285C60.8384 5.58738 60.9868 5.99376 61.2838 6.32198C61.5964 6.65021 62.0028 6.92373 62.5029 7.14255C63.0031 7.34574 63.5736 7.5333 64.2144 7.70523C64.8552 7.87716 65.5039 8.0569 66.1603 8.24446C66.8324 8.41639 67.4811 8.61958 68.1063 8.85403C68.7471 9.07285 69.3176 9.35418 69.8177 9.69804C70.3335 10.0263 70.7399 10.4483 71.0369 10.9641C71.3338 11.4642 71.4823 12.0816 71.4823 12.8162C71.4823 13.9572 71.201 14.8872 70.6383 15.6061C70.0756 16.3095 69.302 16.8253 68.3173 17.1535C67.3326 17.4817 66.1916 17.6459 64.8943 17.6459Z"/>
<path d="M74.7142 17.3645V5.03252H76.3788L76.5664 6.88466H76.7305C77.0431 6.3845 77.3948 5.97812 77.7855 5.66553C78.1763 5.35293 78.6061 5.12629 79.075 4.98563C79.5439 4.82933 80.0518 4.75118 80.5989 4.75118C81.396 4.75118 82.0837 4.91529 82.662 5.24352C83.2403 5.55612 83.6702 6.10316 83.9515 6.88466H84.0922C84.3891 6.3845 84.733 5.98594 85.1238 5.68897C85.5145 5.37637 85.9521 5.14192 86.4367 4.98563C86.9212 4.82933 87.437 4.75118 87.984 4.75118C88.7343 4.75118 89.3907 4.88403 89.9534 5.14974C90.5161 5.39982 90.9537 5.82183 91.2663 6.41576C91.5945 6.99407 91.7587 7.77556 91.7587 8.76025V17.3645H89.6955V9.08848C89.6955 8.58832 89.633 8.17413 89.5079 7.8459C89.3985 7.51767 89.2344 7.26759 89.0156 7.09566C88.7968 6.9081 88.5389 6.77525 88.2419 6.6971C87.9606 6.61895 87.6558 6.57988 87.3276 6.57988C86.7805 6.57988 86.2726 6.72055 85.8037 7.00188C85.3504 7.28322 84.9831 7.6896 84.7017 8.22102C84.4204 8.75243 84.2797 9.38545 84.2797 10.1201V17.3645H82.2166V9.08848C82.2166 8.58832 82.1541 8.17413 82.029 7.8459C81.904 7.51767 81.7399 7.26759 81.5367 7.09566C81.3335 6.9081 81.0834 6.77525 80.7865 6.6971C80.5051 6.61895 80.2081 6.57988 79.8955 6.57988C79.3329 6.57988 78.8093 6.72055 78.3247 7.00188C77.8558 7.28322 77.4807 7.6896 77.1994 8.22102C76.9181 8.75243 76.7774 9.38545 76.7774 10.1201V17.3645H74.7142Z"/>
<path d="M98.3315 17.6459C97.8782 17.6459 97.4249 17.5911 96.9716 17.4817C96.5184 17.3723 96.0964 17.1926 95.7056 16.9425C95.3149 16.6924 95.0023 16.3486 94.7678 15.9109C94.5334 15.4577 94.4162 14.895 94.4162 14.2229C94.4162 13.3789 94.6193 12.6834 95.0257 12.1363C95.4321 11.5893 95.9948 11.1673 96.7138 10.8703C97.4484 10.5577 98.3158 10.3467 99.3161 10.2373C100.316 10.1122 101.403 10.0497 102.575 10.0497V8.64302C102.575 8.18976 102.497 7.79901 102.341 7.47078C102.184 7.14255 101.903 6.89247 101.497 6.72055C101.106 6.53299 100.543 6.43921 99.8085 6.43921C99.1051 6.43921 98.5425 6.53299 98.1204 6.72055C97.7141 6.89247 97.4249 7.11911 97.253 7.40045C97.0967 7.68178 97.0185 7.99438 97.0185 8.33824V8.68991H95.0257C95.0101 8.61176 95.0023 8.53361 95.0023 8.45546C95.0023 8.37731 95.0023 8.28354 95.0023 8.17413C95.0023 7.42389 95.2055 6.7987 95.6118 6.29854C96.0339 5.78275 96.62 5.39982 97.3702 5.14974C98.1204 4.88403 98.9801 4.75118 99.9491 4.75118C100.981 4.75118 101.84 4.89966 102.528 5.19663C103.231 5.4936 103.755 5.91561 104.099 6.46265C104.458 7.0097 104.638 7.66616 104.638 8.43202V15.1138C104.638 15.4108 104.708 15.6218 104.849 15.7468C104.99 15.8562 105.162 15.9109 105.365 15.9109H106.279V17.2707C106.06 17.3645 105.818 17.4427 105.552 17.5052C105.287 17.5833 104.982 17.6224 104.638 17.6224C104.232 17.6224 103.896 17.5364 103.63 17.3645C103.364 17.2082 103.161 16.9894 103.02 16.7081C102.88 16.4111 102.786 16.0829 102.739 15.7234H102.575C102.294 16.1141 101.934 16.458 101.497 16.7549C101.074 17.0363 100.598 17.2551 100.066 17.4114C99.535 17.5677 98.9566 17.6459 98.3315 17.6459ZM98.8472 15.9109C99.3474 15.9109 99.8163 15.8328 100.254 15.6765C100.707 15.5202 101.106 15.3014 101.45 15.02C101.793 14.7231 102.067 14.3714 102.27 13.965C102.473 13.5586 102.575 13.1132 102.575 12.6287V11.5971C101.309 11.5971 100.23 11.6674 99.3396 11.8081C98.4487 11.9487 97.761 12.1988 97.2764 12.5583C96.8075 12.9178 96.5731 13.4258 96.5731 14.0822C96.5731 14.5042 96.6669 14.8481 96.8544 15.1138C97.042 15.3795 97.3077 15.5827 97.6516 15.7234C97.9954 15.8484 98.394 15.9109 98.8472 15.9109Z"/>
<path d="M108.364 17.3645V5.03252H110.029L110.216 7.07222H110.38C110.505 6.68147 110.677 6.31417 110.896 5.97031C111.115 5.61082 111.412 5.32167 111.787 5.10285C112.162 4.8684 112.623 4.75118 113.17 4.75118C113.405 4.75118 113.616 4.77462 113.803 4.82151C114.006 4.85277 114.155 4.89185 114.249 4.93874V6.83777H113.475C112.944 6.83777 112.483 6.93155 112.092 7.11911C111.717 7.29104 111.404 7.54112 111.154 7.86934C110.904 8.19757 110.716 8.58832 110.591 9.04159C110.482 9.49485 110.427 9.97938 110.427 10.4952V17.3645H108.364Z"/>
<path d="M119.384 17.6459C118.743 17.6459 118.243 17.5286 117.883 17.2942C117.524 17.0441 117.266 16.7237 117.11 16.3329C116.953 15.9266 116.875 15.4967 116.875 15.0435V6.76744H115.281V5.03252H116.922L117.297 1.58612H118.938V5.03252H121.259V6.76744H118.938V14.7387C118.938 15.1294 119.009 15.4264 119.149 15.6296C119.29 15.8172 119.556 15.9109 119.947 15.9109H121.259V17.2707C121.103 17.3489 120.916 17.4114 120.697 17.4583C120.478 17.5052 120.251 17.5443 120.017 17.5755C119.798 17.6224 119.587 17.6459 119.384 17.6459Z"/>
</mask>
<path d="M64.8943 17.6459C64.019 17.6459 63.175 17.5599 62.3623 17.388C61.5651 17.216 60.854 16.9425 60.2288 16.5674C59.6036 16.1766 59.1034 15.6765 58.7283 15.0669C58.3688 14.4573 58.1891 13.7071 58.1891 12.8162C58.1891 12.7381 58.1891 12.6599 58.1891 12.5818C58.2047 12.5036 58.2125 12.4255 58.2125 12.3473H60.4632C60.4632 12.3942 60.4554 12.4724 60.4398 12.5818C60.4398 12.6755 60.4398 12.7615 60.4398 12.8397C60.4398 13.4648 60.6274 13.9963 61.0025 14.4339C61.3776 14.8715 61.8934 15.1998 62.5498 15.4186C63.2219 15.6218 63.98 15.7234 64.824 15.7234C65.1991 15.7234 65.5898 15.6999 65.9962 15.653C66.4182 15.6061 66.8168 15.528 67.1919 15.4186C67.5827 15.2935 67.9265 15.1373 68.2235 14.9497C68.5361 14.7465 68.7783 14.5042 68.9503 14.2229C69.1378 13.9259 69.2316 13.5664 69.2316 13.1444C69.2316 12.613 69.0753 12.1754 68.7627 11.8315C68.4658 11.472 68.0672 11.1829 67.567 10.9641C67.0669 10.7296 66.4964 10.5264 65.8556 10.3545C65.2304 10.1669 64.5817 9.9872 63.9096 9.81527C63.2375 9.64334 62.5811 9.44796 61.9403 9.22915C61.3151 8.9947 60.7524 8.71336 60.2522 8.38513C59.7521 8.04127 59.3457 7.61926 59.0331 7.11911C58.7361 6.61895 58.5876 6.00938 58.5876 5.29041C58.5876 4.61832 58.7205 4.01657 58.9862 3.48515C59.2676 2.95374 59.6739 2.50829 60.2053 2.1488C60.7524 1.77368 61.4245 1.49234 62.2216 1.30478C63.0187 1.10159 63.9331 1 64.9647 1C65.8087 1 66.5902 1.09378 67.3091 1.28134C68.0437 1.45327 68.6846 1.72679 69.2316 2.10191C69.7943 2.4614 70.2319 2.92248 70.5445 3.48515C70.8571 4.04783 71.0134 4.72773 71.0134 5.52486V5.8062H68.8096V5.45452C68.8096 4.92311 68.6455 4.46984 68.3173 4.09472C67.989 3.7196 67.5358 3.43045 66.9575 3.22726C66.3948 3.02407 65.754 2.92248 65.035 2.92248C64.0972 2.92248 63.3157 3.01626 62.6905 3.20382C62.0653 3.37575 61.5964 3.63364 61.2838 3.9775C60.9868 4.30572 60.8384 4.68084 60.8384 5.10285C60.8384 5.58738 60.9868 5.99376 61.2838 6.32198C61.5964 6.65021 62.0028 6.92373 62.5029 7.14255C63.0031 7.34574 63.5736 7.5333 64.2144 7.70523C64.8552 7.87716 65.5039 8.0569 66.1603 8.24446C66.8324 8.41639 67.4811 8.61958 68.1063 8.85403C68.7471 9.07285 69.3176 9.35418 69.8177 9.69804C70.3335 10.0263 70.7399 10.4483 71.0369 10.9641C71.3338 11.4642 71.4823 12.0816 71.4823 12.8162C71.4823 13.9572 71.201 14.8872 70.6383 15.6061C70.0756 16.3095 69.302 16.8253 68.3173 17.1535C67.3326 17.4817 66.1916 17.6459 64.8943 17.6459Z" fill="#1E1C2D"/>
<path d="M74.7142 17.3645V5.03252H76.3788L76.5664 6.88466H76.7305C77.0431 6.3845 77.3948 5.97812 77.7855 5.66553C78.1763 5.35293 78.6061 5.12629 79.075 4.98563C79.5439 4.82933 80.0518 4.75118 80.5989 4.75118C81.396 4.75118 82.0837 4.91529 82.662 5.24352C83.2403 5.55612 83.6702 6.10316 83.9515 6.88466H84.0922C84.3891 6.3845 84.733 5.98594 85.1238 5.68897C85.5145 5.37637 85.9521 5.14192 86.4367 4.98563C86.9212 4.82933 87.437 4.75118 87.984 4.75118C88.7343 4.75118 89.3907 4.88403 89.9534 5.14974C90.5161 5.39982 90.9537 5.82183 91.2663 6.41576C91.5945 6.99407 91.7587 7.77556 91.7587 8.76025V17.3645H89.6955V9.08848C89.6955 8.58832 89.633 8.17413 89.5079 7.8459C89.3985 7.51767 89.2344 7.26759 89.0156 7.09566C88.7968 6.9081 88.5389 6.77525 88.2419 6.6971C87.9606 6.61895 87.6558 6.57988 87.3276 6.57988C86.7805 6.57988 86.2726 6.72055 85.8037 7.00188C85.3504 7.28322 84.9831 7.6896 84.7017 8.22102C84.4204 8.75243 84.2797 9.38545 84.2797 10.1201V17.3645H82.2166V9.08848C82.2166 8.58832 82.1541 8.17413 82.029 7.8459C81.904 7.51767 81.7399 7.26759 81.5367 7.09566C81.3335 6.9081 81.0834 6.77525 80.7865 6.6971C80.5051 6.61895 80.2081 6.57988 79.8955 6.57988C79.3329 6.57988 78.8093 6.72055 78.3247 7.00188C77.8558 7.28322 77.4807 7.6896 77.1994 8.22102C76.9181 8.75243 76.7774 9.38545 76.7774 10.1201V17.3645H74.7142Z" fill="#1E1C2D"/>
<path d="M98.3315 17.6459C97.8782 17.6459 97.4249 17.5911 96.9716 17.4817C96.5184 17.3723 96.0964 17.1926 95.7056 16.9425C95.3149 16.6924 95.0023 16.3486 94.7678 15.9109C94.5334 15.4577 94.4162 14.895 94.4162 14.2229C94.4162 13.3789 94.6193 12.6834 95.0257 12.1363C95.4321 11.5893 95.9948 11.1673 96.7138 10.8703C97.4484 10.5577 98.3158 10.3467 99.3161 10.2373C100.316 10.1122 101.403 10.0497 102.575 10.0497V8.64302C102.575 8.18976 102.497 7.79901 102.341 7.47078C102.184 7.14255 101.903 6.89247 101.497 6.72055C101.106 6.53299 100.543 6.43921 99.8085 6.43921C99.1051 6.43921 98.5425 6.53299 98.1204 6.72055C97.7141 6.89247 97.4249 7.11911 97.253 7.40045C97.0967 7.68178 97.0185 7.99438 97.0185 8.33824V8.68991H95.0257C95.0101 8.61176 95.0023 8.53361 95.0023 8.45546C95.0023 8.37731 95.0023 8.28354 95.0023 8.17413C95.0023 7.42389 95.2055 6.7987 95.6118 6.29854C96.0339 5.78275 96.62 5.39982 97.3702 5.14974C98.1204 4.88403 98.9801 4.75118 99.9491 4.75118C100.981 4.75118 101.84 4.89966 102.528 5.19663C103.231 5.4936 103.755 5.91561 104.099 6.46265C104.458 7.0097 104.638 7.66616 104.638 8.43202V15.1138C104.638 15.4108 104.708 15.6218 104.849 15.7468C104.99 15.8562 105.162 15.9109 105.365 15.9109H106.279V17.2707C106.06 17.3645 105.818 17.4427 105.552 17.5052C105.287 17.5833 104.982 17.6224 104.638 17.6224C104.232 17.6224 103.896 17.5364 103.63 17.3645C103.364 17.2082 103.161 16.9894 103.02 16.7081C102.88 16.4111 102.786 16.0829 102.739 15.7234H102.575C102.294 16.1141 101.934 16.458 101.497 16.7549C101.074 17.0363 100.598 17.2551 100.066 17.4114C99.535 17.5677 98.9566 17.6459 98.3315 17.6459ZM98.8472 15.9109C99.3474 15.9109 99.8163 15.8328 100.254 15.6765C100.707 15.5202 101.106 15.3014 101.45 15.02C101.793 14.7231 102.067 14.3714 102.27 13.965C102.473 13.5586 102.575 13.1132 102.575 12.6287V11.5971C101.309 11.5971 100.23 11.6674 99.3396 11.8081C98.4487 11.9487 97.761 12.1988 97.2764 12.5583C96.8075 12.9178 96.5731 13.4258 96.5731 14.0822C96.5731 14.5042 96.6669 14.8481 96.8544 15.1138C97.042 15.3795 97.3077 15.5827 97.6516 15.7234C97.9954 15.8484 98.394 15.9109 98.8472 15.9109Z" fill="#1E1C2D"/>
<path d="M108.364 17.3645V5.03252H110.029L110.216 7.07222H110.38C110.505 6.68147 110.677 6.31417 110.896 5.97031C111.115 5.61082 111.412 5.32167 111.787 5.10285C112.162 4.8684 112.623 4.75118 113.17 4.75118C113.405 4.75118 113.616 4.77462 113.803 4.82151C114.006 4.85277 114.155 4.89185 114.249 4.93874V6.83777H113.475C112.944 6.83777 112.483 6.93155 112.092 7.11911C111.717 7.29104 111.404 7.54112 111.154 7.86934C110.904 8.19757 110.716 8.58832 110.591 9.04159C110.482 9.49485 110.427 9.97938 110.427 10.4952V17.3645H108.364Z" fill="#1E1C2D"/>
<path d="M119.384 17.6459C118.743 17.6459 118.243 17.5286 117.883 17.2942C117.524 17.0441 117.266 16.7237 117.11 16.3329C116.953 15.9266 116.875 15.4967 116.875 15.0435V6.76744H115.281V5.03252H116.922L117.297 1.58612H118.938V5.03252H121.259V6.76744H118.938V14.7387C118.938 15.1294 119.009 15.4264 119.149 15.6296C119.29 15.8172 119.556 15.9109 119.947 15.9109H121.259V17.2707C121.103 17.3489 120.916 17.4114 120.697 17.4583C120.478 17.5052 120.251 17.5443 120.017 17.5755C119.798 17.6224 119.587 17.6459 119.384 17.6459Z" fill="#1E1C2D"/>
<path d="M64.8943 17.6459C64.019 17.6459 63.175 17.5599 62.3623 17.388C61.5651 17.216 60.854 16.9425 60.2288 16.5674C59.6036 16.1766 59.1034 15.6765 58.7283 15.0669C58.3688 14.4573 58.1891 13.7071 58.1891 12.8162C58.1891 12.7381 58.1891 12.6599 58.1891 12.5818C58.2047 12.5036 58.2125 12.4255 58.2125 12.3473H60.4632C60.4632 12.3942 60.4554 12.4724 60.4398 12.5818C60.4398 12.6755 60.4398 12.7615 60.4398 12.8397C60.4398 13.4648 60.6274 13.9963 61.0025 14.4339C61.3776 14.8715 61.8934 15.1998 62.5498 15.4186C63.2219 15.6218 63.98 15.7234 64.824 15.7234C65.1991 15.7234 65.5898 15.6999 65.9962 15.653C66.4182 15.6061 66.8168 15.528 67.1919 15.4186C67.5827 15.2935 67.9265 15.1373 68.2235 14.9497C68.5361 14.7465 68.7783 14.5042 68.9503 14.2229C69.1378 13.9259 69.2316 13.5664 69.2316 13.1444C69.2316 12.613 69.0753 12.1754 68.7627 11.8315C68.4658 11.472 68.0672 11.1829 67.567 10.9641C67.0669 10.7296 66.4964 10.5264 65.8556 10.3545C65.2304 10.1669 64.5817 9.9872 63.9096 9.81527C63.2375 9.64334 62.5811 9.44796 61.9403 9.22915C61.3151 8.9947 60.7524 8.71336 60.2522 8.38513C59.7521 8.04127 59.3457 7.61926 59.0331 7.11911C58.7361 6.61895 58.5876 6.00938 58.5876 5.29041C58.5876 4.61832 58.7205 4.01657 58.9862 3.48515C59.2676 2.95374 59.6739 2.50829 60.2053 2.1488C60.7524 1.77368 61.4245 1.49234 62.2216 1.30478C63.0187 1.10159 63.9331 1 64.9647 1C65.8087 1 66.5902 1.09378 67.3091 1.28134C68.0437 1.45327 68.6846 1.72679 69.2316 2.10191C69.7943 2.4614 70.2319 2.92248 70.5445 3.48515C70.8571 4.04783 71.0134 4.72773 71.0134 5.52486V5.8062H68.8096V5.45452C68.8096 4.92311 68.6455 4.46984 68.3173 4.09472C67.989 3.7196 67.5358 3.43045 66.9575 3.22726C66.3948 3.02407 65.754 2.92248 65.035 2.92248C64.0972 2.92248 63.3157 3.01626 62.6905 3.20382C62.0653 3.37575 61.5964 3.63364 61.2838 3.9775C60.9868 4.30572 60.8384 4.68084 60.8384 5.10285C60.8384 5.58738 60.9868 5.99376 61.2838 6.32198C61.5964 6.65021 62.0028 6.92373 62.5029 7.14255C63.0031 7.34574 63.5736 7.5333 64.2144 7.70523C64.8552 7.87716 65.5039 8.0569 66.1603 8.24446C66.8324 8.41639 67.4811 8.61958 68.1063 8.85403C68.7471 9.07285 69.3176 9.35418 69.8177 9.69804C70.3335 10.0263 70.7399 10.4483 71.0369 10.9641C71.3338 11.4642 71.4823 12.0816 71.4823 12.8162C71.4823 13.9572 71.201 14.8872 70.6383 15.6061C70.0756 16.3095 69.302 16.8253 68.3173 17.1535C67.3326 17.4817 66.1916 17.6459 64.8943 17.6459Z" stroke="black" stroke-width="2" mask="url(#path-4-outside-1_3537_312)"/>
<path d="M74.7142 17.3645V5.03252H76.3788L76.5664 6.88466H76.7305C77.0431 6.3845 77.3948 5.97812 77.7855 5.66553C78.1763 5.35293 78.6061 5.12629 79.075 4.98563C79.5439 4.82933 80.0518 4.75118 80.5989 4.75118C81.396 4.75118 82.0837 4.91529 82.662 5.24352C83.2403 5.55612 83.6702 6.10316 83.9515 6.88466H84.0922C84.3891 6.3845 84.733 5.98594 85.1238 5.68897C85.5145 5.37637 85.9521 5.14192 86.4367 4.98563C86.9212 4.82933 87.437 4.75118 87.984 4.75118C88.7343 4.75118 89.3907 4.88403 89.9534 5.14974C90.5161 5.39982 90.9537 5.82183 91.2663 6.41576C91.5945 6.99407 91.7587 7.77556 91.7587 8.76025V17.3645H89.6955V9.08848C89.6955 8.58832 89.633 8.17413 89.5079 7.8459C89.3985 7.51767 89.2344 7.26759 89.0156 7.09566C88.7968 6.9081 88.5389 6.77525 88.2419 6.6971C87.9606 6.61895 87.6558 6.57988 87.3276 6.57988C86.7805 6.57988 86.2726 6.72055 85.8037 7.00188C85.3504 7.28322 84.9831 7.6896 84.7017 8.22102C84.4204 8.75243 84.2797 9.38545 84.2797 10.1201V17.3645H82.2166V9.08848C82.2166 8.58832 82.1541 8.17413 82.029 7.8459C81.904 7.51767 81.7399 7.26759 81.5367 7.09566C81.3335 6.9081 81.0834 6.77525 80.7865 6.6971C80.5051 6.61895 80.2081 6.57988 79.8955 6.57988C79.3329 6.57988 78.8093 6.72055 78.3247 7.00188C77.8558 7.28322 77.4807 7.6896 77.1994 8.22102C76.9181 8.75243 76.7774 9.38545 76.7774 10.1201V17.3645H74.7142Z" stroke="black" stroke-width="2" mask="url(#path-4-outside-1_3537_312)"/>
<path d="M98.3315 17.6459C97.8782 17.6459 97.4249 17.5911 96.9716 17.4817C96.5184 17.3723 96.0964 17.1926 95.7056 16.9425C95.3149 16.6924 95.0023 16.3486 94.7678 15.9109C94.5334 15.4577 94.4162 14.895 94.4162 14.2229C94.4162 13.3789 94.6193 12.6834 95.0257 12.1363C95.4321 11.5893 95.9948 11.1673 96.7138 10.8703C97.4484 10.5577 98.3158 10.3467 99.3161 10.2373C100.316 10.1122 101.403 10.0497 102.575 10.0497V8.64302C102.575 8.18976 102.497 7.79901 102.341 7.47078C102.184 7.14255 101.903 6.89247 101.497 6.72055C101.106 6.53299 100.543 6.43921 99.8085 6.43921C99.1051 6.43921 98.5425 6.53299 98.1204 6.72055C97.7141 6.89247 97.4249 7.11911 97.253 7.40045C97.0967 7.68178 97.0185 7.99438 97.0185 8.33824V8.68991H95.0257C95.0101 8.61176 95.0023 8.53361 95.0023 8.45546C95.0023 8.37731 95.0023 8.28354 95.0023 8.17413C95.0023 7.42389 95.2055 6.7987 95.6118 6.29854C96.0339 5.78275 96.62 5.39982 97.3702 5.14974C98.1204 4.88403 98.9801 4.75118 99.9491 4.75118C100.981 4.75118 101.84 4.89966 102.528 5.19663C103.231 5.4936 103.755 5.91561 104.099 6.46265C104.458 7.0097 104.638 7.66616 104.638 8.43202V15.1138C104.638 15.4108 104.708 15.6218 104.849 15.7468C104.99 15.8562 105.162 15.9109 105.365 15.9109H106.279V17.2707C106.06 17.3645 105.818 17.4427 105.552 17.5052C105.287 17.5833 104.982 17.6224 104.638 17.6224C104.232 17.6224 103.896 17.5364 103.63 17.3645C103.364 17.2082 103.161 16.9894 103.02 16.7081C102.88 16.4111 102.786 16.0829 102.739 15.7234H102.575C102.294 16.1141 101.934 16.458 101.497 16.7549C101.074 17.0363 100.598 17.2551 100.066 17.4114C99.535 17.5677 98.9566 17.6459 98.3315 17.6459ZM98.8472 15.9109C99.3474 15.9109 99.8163 15.8328 100.254 15.6765C100.707 15.5202 101.106 15.3014 101.45 15.02C101.793 14.7231 102.067 14.3714 102.27 13.965C102.473 13.5586 102.575 13.1132 102.575 12.6287V11.5971C101.309 11.5971 100.23 11.6674 99.3396 11.8081C98.4487 11.9487 97.761 12.1988 97.2764 12.5583C96.8075 12.9178 96.5731 13.4258 96.5731 14.0822C96.5731 14.5042 96.6669 14.8481 96.8544 15.1138C97.042 15.3795 97.3077 15.5827 97.6516 15.7234C97.9954 15.8484 98.394 15.9109 98.8472 15.9109Z" stroke="black" stroke-width="2" mask="url(#path-4-outside-1_3537_312)"/>
<path d="M108.364 17.3645V5.03252H110.029L110.216 7.07222H110.38C110.505 6.68147 110.677 6.31417 110.896 5.97031C111.115 5.61082 111.412 5.32167 111.787 5.10285C112.162 4.8684 112.623 4.75118 113.17 4.75118C113.405 4.75118 113.616 4.77462 113.803 4.82151C114.006 4.85277 114.155 4.89185 114.249 4.93874V6.83777H113.475C112.944 6.83777 112.483 6.93155 112.092 7.11911C111.717 7.29104 111.404 7.54112 111.154 7.86934C110.904 8.19757 110.716 8.58832 110.591 9.04159C110.482 9.49485 110.427 9.97938 110.427 10.4952V17.3645H108.364Z" stroke="black" stroke-width="2" mask="url(#path-4-outside-1_3537_312)"/>
<path d="M119.384 17.6459C118.743 17.6459 118.243 17.5286 117.883 17.2942C117.524 17.0441 117.266 16.7237 117.11 16.3329C116.953 15.9266 116.875 15.4967 116.875 15.0435V6.76744H115.281V5.03252H116.922L117.297 1.58612H118.938V5.03252H121.259V6.76744H118.938V14.7387C118.938 15.1294 119.009 15.4264 119.149 15.6296C119.29 15.8172 119.556 15.9109 119.947 15.9109H121.259V17.2707C121.103 17.3489 120.916 17.4114 120.697 17.4583C120.478 17.5052 120.251 17.5443 120.017 17.5755C119.798 17.6224 119.587 17.6459 119.384 17.6459Z" stroke="black" stroke-width="2" mask="url(#path-4-outside-1_3537_312)"/>
</g>
<path d="M58.0331 38.7345V22.6279H69.9431C70.8027 22.6279 71.5764 22.7998 72.2641 23.1437C72.9518 23.4719 73.4911 23.933 73.8818 24.5269C74.2882 25.1208 74.4914 25.8164 74.4914 26.6135C74.4914 27.2543 74.3663 27.8248 74.1163 28.325C73.8818 28.8251 73.5614 29.2393 73.155 29.5675C72.7486 29.8958 72.2954 30.138 71.7952 30.2943V30.3881C72.3892 30.5132 72.9206 30.7476 73.3895 31.0915C73.874 31.4353 74.2491 31.8808 74.5148 32.4278C74.7962 32.9592 74.9368 33.5922 74.9368 34.3269C74.9368 35.2959 74.7102 36.1087 74.2569 36.7651C73.8193 37.4216 73.2253 37.9139 72.4751 38.2421C71.7249 38.5704 70.8887 38.7345 69.9665 38.7345H58.0331ZM61.9484 35.6632H69.0053C69.5523 35.6632 70.0056 35.5147 70.3651 35.2178C70.7246 34.9208 70.9043 34.4519 70.9043 33.8111C70.9043 33.4672 70.8262 33.1546 70.6699 32.8733C70.5292 32.5919 70.3104 32.3809 70.0134 32.2403C69.7164 32.084 69.3335 32.0058 68.8646 32.0058H61.9484V35.6632ZM61.9484 29.0752H68.5833C68.9896 29.0752 69.3335 29.0049 69.6148 28.8642C69.8962 28.7079 70.1072 28.5047 70.2479 28.2546C70.4042 27.9889 70.4823 27.692 70.4823 27.3637C70.4823 26.8011 70.3182 26.379 69.99 26.0977C69.6617 25.8007 69.2319 25.6523 68.7005 25.6523H61.9484V29.0752Z" fill="#0D0B1A"/>
<path d="M82.9872 39.0158C81.3461 39.0158 80.0957 38.6173 79.236 37.8201C78.392 37.023 77.97 35.7882 77.97 34.1158V26.379H81.5336V33.5532C81.5336 34.0221 81.5961 34.4206 81.7212 34.7489C81.8619 35.0771 82.0494 35.3428 82.2839 35.546C82.5183 35.7492 82.8075 35.8977 83.1513 35.9914C83.4952 36.0852 83.8703 36.1321 84.2767 36.1321C84.9019 36.1321 85.4724 36.0071 85.9881 35.757C86.5196 35.4913 86.9416 35.1318 87.2542 34.6785C87.5668 34.2096 87.7231 33.6704 87.7231 33.0608V26.379H91.3101V38.7345H88.403L88.1451 36.7417H87.9575C87.5511 37.2887 87.0744 37.7264 86.5274 38.0546C85.996 38.3828 85.4255 38.6251 84.8159 38.7814C84.222 38.9377 83.6124 39.0158 82.9872 39.0158Z" fill="#0D0B1A"/>
<path d="M100.857 39.0158C99.9502 39.0158 99.0906 38.9377 98.2778 38.7814C97.4651 38.6251 96.7461 38.3906 96.1209 38.078C95.5113 37.7654 95.0268 37.3747 94.6673 36.9058C94.3078 36.4213 94.1281 35.8586 94.1281 35.2178C94.1281 35.1396 94.1281 35.0771 94.1281 35.0302C94.1437 34.9677 94.1593 34.9052 94.175 34.8426H97.7855C97.7855 34.8739 97.7777 34.913 97.762 34.9599C97.762 34.9911 97.762 35.0224 97.762 35.0536C97.7777 35.4288 97.9262 35.7335 98.2075 35.968C98.5045 36.1868 98.8874 36.3509 99.3563 36.4603C99.8408 36.5541 100.349 36.601 100.88 36.601C101.396 36.601 101.896 36.5697 102.381 36.5072C102.865 36.4291 103.264 36.304 103.576 36.1321C103.889 35.9445 104.045 35.6788 104.045 35.335C104.045 34.9442 103.858 34.6629 103.483 34.491C103.107 34.319 102.584 34.1862 101.912 34.0924C101.24 33.983 100.466 33.858 99.5907 33.7173C98.903 33.6079 98.2544 33.4672 97.6448 33.2953C97.0352 33.1233 96.496 32.9045 96.0271 32.6388C95.5582 32.3575 95.1909 32.0058 94.9252 31.5838C94.6595 31.1462 94.5267 30.6069 94.5267 29.9661C94.5267 29.2784 94.6829 28.6923 94.9955 28.2077C95.3238 27.7076 95.777 27.309 96.3554 27.0121C96.9337 26.6995 97.6214 26.4728 98.4185 26.3322C99.2156 26.1759 100.091 26.0977 101.044 26.0977C101.904 26.0977 102.701 26.1759 103.436 26.3322C104.186 26.4728 104.842 26.6916 105.405 26.9886C105.983 27.2699 106.429 27.6294 106.741 28.0671C107.07 28.5047 107.234 29.0127 107.234 29.591C107.234 29.6535 107.234 29.7238 107.234 29.802C107.234 29.8645 107.226 29.9192 107.21 29.9661H103.623V29.8254C103.623 29.5285 103.498 29.2862 103.248 29.0986C103.014 28.8955 102.693 28.747 102.287 28.6532C101.896 28.5594 101.466 28.5125 100.997 28.5125C100.779 28.5125 100.505 28.5282 100.177 28.5594C99.8643 28.575 99.5438 28.6219 99.2156 28.7001C98.903 28.7782 98.6373 28.8876 98.4185 29.0283C98.1997 29.1534 98.0903 29.3409 98.0903 29.591C98.0903 29.9036 98.2622 30.138 98.6061 30.2943C98.9655 30.4506 99.4266 30.5757 99.9893 30.6695C100.568 30.7476 101.193 30.8414 101.865 30.9508C102.584 31.0602 103.287 31.1852 103.975 31.3259C104.678 31.4666 105.296 31.6698 105.827 31.9355C106.374 32.2012 106.812 32.5685 107.14 33.0374C107.468 33.5063 107.632 34.1237 107.632 34.8895C107.632 35.6554 107.468 36.304 107.14 36.8355C106.812 37.3669 106.351 37.7967 105.757 38.1249C105.163 38.4375 104.452 38.6642 103.623 38.8048C102.795 38.9455 101.873 39.0158 100.857 39.0158Z" fill="#0D0B1A"/>
<path d="M110.477 24.5035V21.7604H114.064V24.5035H110.477ZM110.477 38.7345V26.379H114.064V38.7345H110.477Z" fill="#0D0B1A"/>
<path d="M117.56 38.7345V26.379H120.467L120.725 28.3719H120.936C121.342 27.8248 121.811 27.3872 122.342 27.0589C122.874 26.7307 123.444 26.4885 124.054 26.3322C124.679 26.1759 125.296 26.0977 125.906 26.0977C127 26.0977 127.914 26.2774 128.649 26.6369C129.399 26.9808 129.962 27.5122 130.337 28.2312C130.712 28.9502 130.9 29.8723 130.9 30.9977V38.7345H127.336V31.5604C127.336 31.0915 127.274 30.6929 127.149 30.3647C127.023 30.0364 126.836 29.7707 126.586 29.5675C126.351 29.3644 126.062 29.2159 125.718 29.1221C125.39 29.0283 125.015 28.9814 124.593 28.9814C123.968 28.9814 123.39 29.1143 122.858 29.38C122.342 29.6301 121.928 29.9896 121.616 30.4584C121.303 30.9117 121.147 31.4431 121.147 32.0527V38.7345H117.56Z" fill="#0D0B1A"/>
<path d="M141.384 39.0158C139.821 39.0158 138.476 38.7892 137.351 38.3359C136.226 37.867 135.358 37.1559 134.749 36.2024C134.139 35.249 133.834 34.0377 133.834 32.5685C133.834 31.1149 134.131 29.9114 134.725 28.958C135.319 27.9889 136.171 27.2699 137.281 26.8011C138.39 26.3322 139.711 26.0977 141.243 26.0977C142.822 26.0977 144.15 26.3322 145.229 26.8011C146.323 27.2699 147.143 27.9655 147.69 28.8876C148.253 29.8098 148.534 30.9586 148.534 32.334V33.3656H137.562C137.593 34.0846 137.765 34.6785 138.078 35.1474C138.39 35.6007 138.828 35.9367 139.391 36.1556C139.969 36.3587 140.649 36.4603 141.43 36.4603C141.806 36.4603 142.189 36.4213 142.579 36.3431C142.97 36.2493 143.33 36.1243 143.658 35.968C143.986 35.7961 144.259 35.5851 144.478 35.335C144.697 35.0693 144.822 34.7645 144.853 34.4206H148.464C148.464 35.1083 148.3 35.7335 147.972 36.2962C147.643 36.8589 147.167 37.3434 146.541 37.7498C145.916 38.1562 145.166 38.4688 144.291 38.6876C143.431 38.9064 142.462 39.0158 141.384 39.0158ZM137.562 31.1852H144.76C144.76 30.7632 144.674 30.3959 144.502 30.0833C144.33 29.7551 144.088 29.4894 143.775 29.2862C143.462 29.083 143.095 28.9267 142.673 28.8173C142.267 28.7079 141.821 28.6532 141.337 28.6532C140.602 28.6532 139.961 28.7548 139.414 28.958C138.883 29.1455 138.461 29.4347 138.148 29.8254C137.836 30.2006 137.64 30.6538 137.562 31.1852Z" fill="#0D0B1A"/>
<path d="M157.556 39.0158C156.649 39.0158 155.79 38.9377 154.977 38.7814C154.164 38.6251 153.445 38.3906 152.82 38.078C152.21 37.7654 151.726 37.3747 151.366 36.9058C151.007 36.4213 150.827 35.8586 150.827 35.2178C150.827 35.1396 150.827 35.0771 150.827 35.0302C150.843 34.9677 150.858 34.9052 150.874 34.8426H154.484C154.484 34.8739 154.477 34.913 154.461 34.9599C154.461 34.9911 154.461 35.0224 154.461 35.0536C154.477 35.4288 154.625 35.7335 154.907 35.968C155.203 36.1868 155.586 36.3509 156.055 36.4603C156.54 36.5541 157.048 36.601 157.579 36.601C158.095 36.601 158.595 36.5697 159.08 36.5072C159.564 36.4291 159.963 36.304 160.275 36.1321C160.588 35.9445 160.744 35.6788 160.744 35.335C160.744 34.9442 160.557 34.6629 160.182 34.491C159.806 34.319 159.283 34.1862 158.611 34.0924C157.939 33.983 157.165 33.858 156.29 33.7173C155.602 33.6079 154.953 33.4672 154.344 33.2953C153.734 33.1233 153.195 32.9045 152.726 32.6388C152.257 32.3575 151.89 32.0058 151.624 31.5838C151.359 31.1462 151.226 30.6069 151.226 29.9661C151.226 29.2784 151.382 28.6923 151.695 28.2077C152.023 27.7076 152.476 27.309 153.054 27.0121C153.633 26.6995 154.32 26.4728 155.118 26.3322C155.915 26.1759 156.79 26.0977 157.743 26.0977C158.603 26.0977 159.4 26.1759 160.135 26.3322C160.885 26.4728 161.541 26.6916 162.104 26.9886C162.682 27.2699 163.128 27.6294 163.44 28.0671C163.769 28.5047 163.933 29.0127 163.933 29.591C163.933 29.6535 163.933 29.7238 163.933 29.802C163.933 29.8645 163.925 29.9192 163.909 29.9661H160.322V29.8254C160.322 29.5285 160.197 29.2862 159.947 29.0986C159.713 28.8955 159.392 28.747 158.986 28.6532C158.595 28.5594 158.165 28.5125 157.696 28.5125C157.478 28.5125 157.204 28.5282 156.876 28.5594C156.563 28.575 156.243 28.6219 155.915 28.7001C155.602 28.7782 155.336 28.8876 155.118 29.0283C154.899 29.1534 154.789 29.3409 154.789 29.591C154.789 29.9036 154.961 30.138 155.305 30.2943C155.665 30.4506 156.126 30.5757 156.688 30.6695C157.267 30.7476 157.892 30.8414 158.564 30.9508C159.283 31.0602 159.986 31.1852 160.674 31.3259C161.377 31.4666 161.995 31.6698 162.526 31.9355C163.073 32.2012 163.511 32.5685 163.839 33.0374C164.167 33.5063 164.331 34.1237 164.331 34.8895C164.331 35.6554 164.167 36.304 163.839 36.8355C163.511 37.3669 163.05 37.7967 162.456 38.1249C161.862 38.4375 161.151 38.6642 160.322 38.8048C159.494 38.9455 158.572 39.0158 157.556 39.0158Z" fill="#0D0B1A"/>
<path d="M173.224 39.0158C172.318 39.0158 171.458 38.9377 170.646 38.7814C169.833 38.6251 169.114 38.3906 168.489 38.078C167.879 37.7654 167.394 37.3747 167.035 36.9058C166.676 36.4213 166.496 35.8586 166.496 35.2178C166.496 35.1396 166.496 35.0771 166.496 35.0302C166.511 34.9677 166.527 34.9052 166.543 34.8426H170.153C170.153 34.8739 170.145 34.913 170.13 34.9599C170.13 34.9911 170.13 35.0224 170.13 35.0536C170.145 35.4288 170.294 35.7335 170.575 35.968C170.872 36.1868 171.255 36.3509 171.724 36.4603C172.209 36.5541 172.716 36.601 173.248 36.601C173.764 36.601 174.264 36.5697 174.748 36.5072C175.233 36.4291 175.631 36.304 175.944 36.1321C176.257 35.9445 176.413 35.6788 176.413 35.335C176.413 34.9442 176.225 34.6629 175.85 34.491C175.475 34.319 174.952 34.1862 174.279 34.0924C173.607 33.983 172.834 33.858 171.958 33.7173C171.271 33.6079 170.622 33.4672 170.013 33.2953C169.403 33.1233 168.864 32.9045 168.395 32.6388C167.926 32.3575 167.559 32.0058 167.293 31.5838C167.027 31.1462 166.894 30.6069 166.894 29.9661C166.894 29.2784 167.051 28.6923 167.363 28.2077C167.691 27.7076 168.145 27.309 168.723 27.0121C169.301 26.6995 169.989 26.4728 170.786 26.3322C171.583 26.1759 172.459 26.0977 173.412 26.0977C174.272 26.0977 175.069 26.1759 175.803 26.3322C176.554 26.4728 177.21 26.6916 177.773 26.9886C178.351 27.2699 178.797 27.6294 179.109 28.0671C179.437 28.5047 179.601 29.0127 179.601 29.591C179.601 29.6535 179.601 29.7238 179.601 29.802C179.601 29.8645 179.594 29.9192 179.578 29.9661H175.991V29.8254C175.991 29.5285 175.866 29.2862 175.616 29.0986C175.381 28.8955 175.061 28.747 174.655 28.6532C174.264 28.5594 173.834 28.5125 173.365 28.5125C173.146 28.5125 172.873 28.5282 172.545 28.5594C172.232 28.575 171.912 28.6219 171.583 28.7001C171.271 28.7782 171.005 28.8876 170.786 29.0283C170.567 29.1534 170.458 29.3409 170.458 29.591C170.458 29.9036 170.63 30.138 170.974 30.2943C171.333 30.4506 171.794 30.5757 172.357 30.6695C172.935 30.7476 173.56 30.8414 174.233 30.9508C174.952 31.0602 175.655 31.1852 176.343 31.3259C177.046 31.4666 177.663 31.6698 178.195 31.9355C178.742 32.2012 179.179 32.5685 179.508 33.0374C179.836 33.5063 180 34.1237 180 34.8895C180 35.6554 179.836 36.304 179.508 36.8355C179.179 37.3669 178.718 37.7967 178.124 38.1249C177.53 38.4375 176.819 38.6642 175.991 38.8048C175.163 38.9455 174.24 39.0158 173.224 39.0158Z" fill="#0D0B1A"/>
<defs>
<filter id="filter0_d_3537_312" x="0" y="20.4464" width="26.7145" height="26.7144" filterUnits="userSpaceOnUse" color-interpolation-filters="sRGB">
<feFlood flood-opacity="0" result="BackgroundImageFix"/>
<feColorMatrix in="SourceAlpha" type="matrix" values="0 0 0 0 0 0 0 0 0 0 0 0 0 0 0 0 0 0 127 0" result="hardAlpha"/>
<feOffset dy="4"/>
<feGaussianBlur stdDeviation="2"/>
<feComposite in2="hardAlpha" operator="out"/>
<feColorMatrix type="matrix" values="0 0 0 0 0 0 0 0 0 0 0 0 0 0 0 0 0 0 0.25 0"/>
<feBlend mode="normal" in2="BackgroundImageFix" result="effect1_dropShadow_3537_312"/>
<feBlend mode="normal" in="SourceGraphic" in2="effect1_dropShadow_3537_312" result="shape"/>
</filter>
<filter id="filter1_d_3537_312" x="53.1891" y="0" width="73.0703" height="26.6458" filterUnits="userSpaceOnUse" color-interpolation-filters="sRGB">
<feFlood flood-opacity="0" result="BackgroundImageFix"/>
<feColorMatrix in="SourceAlpha" type="matrix" values="0 0 0 0 0 0 0 0 0 0 0 0 0 0 0 0 0 0 127 0" result="hardAlpha"/>
<feOffset dy="4"/>
<feGaussianBlur stdDeviation="2"/>
<feComposite in2="hardAlpha" operator="out"/>
<feColorMatrix type="matrix" values="0 0 0 0 0 0 0 0 0 0 0 0 0 0 0 0 0 0 0.25 0"/>
<feBlend mode="normal" in2="BackgroundImageFix" result="effect1_dropShadow_3537_312"/>
<feBlend mode="normal" in="SourceGraphic" in2="effect1_dropShadow_3537_312" result="shape"/>
</filter>
</defs>
</svg>
