<svg width="22" height="18" viewBox="0 0 22 18" fill="none" xmlns="http://www.w3.org/2000/svg">
<path d="M22 18V15.1315C20.8847 14.8924 19.9924 14.4143 19.3232 13.6972C18.5982 12.9801 18.0963 12.0956 17.8175 11.0438C17.4829 9.99203 17.3156 8.82072 17.3156 7.52988H21.1635V0H12.9658V6.74104C12.9658 9.46614 13.4398 11.6175 14.3878 13.1952C15.3359 14.7729 16.507 15.9203 17.9011 16.6374C19.2395 17.3068 20.6058 17.761 22 18ZM8.95057 18V15.1315C7.891 14.8924 7.02662 14.4143 6.35741 13.6972C5.63245 12.9801 5.13054 12.0956 4.85171 11.0438C4.51711 9.99203 4.34981 8.82072 4.34981 7.52988H8.19772V0H0V6.74104C0 9.46614 0.474018 11.6175 1.42205 13.1952C2.31432 14.7729 3.45754 15.9203 4.85171 16.6374C6.24588 17.3068 7.61217 17.761 8.95057 18Z" fill="#97A5FF"/>
</svg>
