<svg width="176" height="39" viewBox="0 0 176 39" fill="none" xmlns="http://www.w3.org/2000/svg">
<rect x="24.3287" y="0.731995" width="18.7144" height="37.4289" rx="0.831162" fill="#1D63FF"/>
<path fill-rule="evenodd" clip-rule="evenodd" d="M15.7646 22.3963H2.94982V35.2111H15.7646V22.3963ZM0 19.4464V38.1609H18.7144V19.4464H0Z" fill="#1D63FF"/>
<path d="M60.8943 16.6459C60.019 16.6459 59.175 16.5599 58.3623 16.388C57.5651 16.216 56.854 15.9425 56.2288 15.5674C55.6036 15.1766 55.1034 14.6765 54.7283 14.0669C54.3688 13.4573 54.1891 12.7071 54.1891 11.8162C54.1891 11.7381 54.1891 11.6599 54.1891 11.5818C54.2047 11.5036 54.2125 11.4255 54.2125 11.3473H56.4632C56.4632 11.3942 56.4554 11.4724 56.4398 11.5818C56.4398 11.6755 56.4398 11.7615 56.4398 11.8397C56.4398 12.4648 56.6274 12.9963 57.0025 13.4339C57.3776 13.8715 57.8934 14.1998 58.5498 14.4186C59.2219 14.6218 59.98 14.7234 60.824 14.7234C61.1991 14.7234 61.5898 14.6999 61.9962 14.653C62.4182 14.6061 62.8168 14.528 63.1919 14.4186C63.5827 14.2935 63.9265 14.1372 64.2235 13.9497C64.5361 13.7465 64.7783 13.5042 64.9503 13.2229C65.1378 12.9259 65.2316 12.5664 65.2316 12.1444C65.2316 11.613 65.0753 11.1754 64.7627 10.8315C64.4658 10.472 64.0672 10.1829 63.567 9.96407C63.0669 9.72962 62.4964 9.52643 61.8556 9.3545C61.2304 9.16694 60.5817 8.9872 59.9096 8.81527C59.2375 8.64334 58.5811 8.44796 57.9403 8.22915C57.3151 7.9947 56.7524 7.71336 56.2522 7.38513C55.7521 7.04127 55.3457 6.61926 55.0331 6.11911C54.7361 5.61895 54.5876 5.00939 54.5876 4.29041C54.5876 3.61832 54.7205 3.01657 54.9862 2.48515C55.2676 1.95374 55.6739 1.50829 56.2053 1.1488C56.7524 0.77368 57.4245 0.492341 58.2216 0.304782C59.0187 0.101594 59.9331 0 60.9647 0C61.8087 0 62.5902 0.093779 63.3091 0.281337C64.0437 0.453267 64.6846 0.72679 65.2316 1.10191C65.7943 1.4614 66.2319 1.92248 66.5445 2.48515C66.8571 3.04783 67.0134 3.72773 67.0134 4.52486V4.8062H64.8096V4.45452C64.8096 3.92311 64.6455 3.46984 64.3173 3.09472C63.989 2.7196 63.5358 2.43045 62.9575 2.22726C62.3948 2.02407 61.754 1.92248 61.035 1.92248C60.0972 1.92248 59.3157 2.01626 58.6905 2.20382C58.0653 2.37575 57.5964 2.63364 57.2838 2.9775C56.9868 3.30572 56.8384 3.68084 56.8384 4.10285C56.8384 4.58738 56.9868 4.99375 57.2838 5.32198C57.5964 5.65021 58.0028 5.92373 58.5029 6.14255C59.0031 6.34574 59.5736 6.5333 60.2144 6.70523C60.8552 6.87716 61.5039 7.0569 62.1603 7.24446C62.8324 7.41639 63.4811 7.61958 64.1063 7.85403C64.7471 8.07285 65.3176 8.35418 65.8177 8.69804C66.3335 9.02627 66.7399 9.44828 67.0369 9.96407C67.3338 10.4642 67.4823 11.0816 67.4823 11.8162C67.4823 12.9572 67.201 13.8872 66.6383 14.6061C66.0756 15.3095 65.302 15.8253 64.3173 16.1535C63.3326 16.4817 62.1916 16.6459 60.8943 16.6459Z" fill="#1E1C2D"/>
<path d="M70.7142 16.3645V4.03252H72.3788L72.5664 5.88466H72.7305C73.0431 5.3845 73.3948 4.97812 73.7855 4.66553C74.1763 4.35293 74.6061 4.12629 75.075 3.98563C75.5439 3.82933 76.0518 3.75118 76.5989 3.75118C77.396 3.75118 78.0837 3.91529 78.662 4.24352C79.2403 4.55612 79.6702 5.10316 79.9515 5.88466H80.0922C80.3891 5.3845 80.733 4.98594 81.1238 4.68897C81.5145 4.37637 81.9521 4.14192 82.4367 3.98563C82.9212 3.82933 83.437 3.75118 83.984 3.75118C84.7343 3.75118 85.3907 3.88403 85.9534 4.14974C86.5161 4.39982 86.9537 4.82183 87.2663 5.41576C87.5945 5.99407 87.7587 6.77556 87.7587 7.76025V16.3645H85.6955V8.08848C85.6955 7.58832 85.633 7.17413 85.5079 6.8459C85.3985 6.51767 85.2344 6.26759 85.0156 6.09566C84.7968 5.9081 84.5389 5.77525 84.2419 5.6971C83.9606 5.61895 83.6558 5.57988 83.3276 5.57988C82.7805 5.57988 82.2726 5.72055 81.8037 6.00188C81.3504 6.28322 80.9831 6.6896 80.7017 7.22102C80.4204 7.75243 80.2797 8.38544 80.2797 9.12005V16.3645H78.2166V8.08848C78.2166 7.58832 78.1541 7.17413 78.029 6.8459C77.904 6.51767 77.7399 6.26759 77.5367 6.09566C77.3335 5.9081 77.0834 5.77525 76.7865 5.6971C76.5051 5.61895 76.2081 5.57988 75.8955 5.57988C75.3329 5.57988 74.8093 5.72055 74.3247 6.00188C73.8558 6.28322 73.4807 6.6896 73.1994 7.22102C72.9181 7.75243 72.7774 8.38544 72.7774 9.12005V16.3645H70.7142Z" fill="#1E1C2D"/>
<path d="M94.3315 16.6459C93.8782 16.6459 93.4249 16.5911 92.9716 16.4817C92.5184 16.3723 92.0964 16.1926 91.7056 15.9425C91.3149 15.6924 91.0023 15.3486 90.7678 14.9109C90.5334 14.4577 90.4162 13.895 90.4162 13.2229C90.4162 12.3789 90.6193 11.6834 91.0257 11.1363C91.4321 10.5893 91.9948 10.1673 92.7138 9.87029C93.4484 9.55769 94.3158 9.34668 95.3161 9.23727C96.3164 9.11224 97.4027 9.04972 98.575 9.04972V7.64302C98.575 7.18976 98.4968 6.79901 98.3405 6.47078C98.1842 6.14255 97.9029 5.89247 97.4965 5.72055C97.1058 5.53299 96.5431 5.43921 95.8085 5.43921C95.1051 5.43921 94.5425 5.53299 94.1204 5.72055C93.7141 5.89247 93.4249 6.11911 93.253 6.40045C93.0967 6.68178 93.0185 6.99438 93.0185 7.33824V7.68991H91.0257C91.0101 7.61176 91.0023 7.53361 91.0023 7.45546C91.0023 7.37732 91.0023 7.28354 91.0023 7.17413C91.0023 6.42389 91.2055 5.7987 91.6118 5.29854C92.0339 4.78275 92.62 4.39982 93.3702 4.14974C94.1204 3.88403 94.9801 3.75118 95.9491 3.75118C96.9807 3.75118 97.8404 3.89966 98.5281 4.19663C99.2314 4.4936 99.755 4.91561 100.099 5.46265C100.458 6.0097 100.638 6.66616 100.638 7.43202V14.1138C100.638 14.4108 100.708 14.6218 100.849 14.7468C100.99 14.8562 101.162 14.9109 101.365 14.9109H102.279V16.2707C102.06 16.3645 101.818 16.4427 101.552 16.5052C101.287 16.5833 100.982 16.6224 100.638 16.6224C100.232 16.6224 99.8957 16.5364 99.63 16.3645C99.3643 16.2082 99.1611 15.9894 99.0204 15.7081C98.8798 15.4111 98.786 15.0829 98.7391 14.7234H98.575C98.2936 15.1141 97.9341 15.458 97.4965 15.7549C97.0745 16.0363 96.5978 16.2551 96.0664 16.4114C95.535 16.5677 94.9566 16.6459 94.3315 16.6459ZM94.8472 14.9109C95.3474 14.9109 95.8163 14.8328 96.2539 14.6765C96.7072 14.5202 97.1058 14.3014 97.4496 14.02C97.7935 13.7231 98.067 13.3714 98.2702 12.965C98.4734 12.5586 98.575 12.1132 98.575 11.6287V10.5971C97.309 10.5971 96.2305 10.6674 95.3396 10.8081C94.4487 10.9487 93.761 11.1988 93.2764 11.5583C92.8075 11.9178 92.5731 12.4258 92.5731 13.0822C92.5731 13.5042 92.6669 13.8481 92.8544 14.1138C93.042 14.3795 93.3077 14.5827 93.6516 14.7234C93.9954 14.8484 94.394 14.9109 94.8472 14.9109Z" fill="#1E1C2D"/>
<path d="M104.364 16.3645V4.03252H106.029L106.216 6.07222H106.38C106.505 5.68147 106.677 5.31417 106.896 4.97031C107.115 4.61082 107.412 4.32167 107.787 4.10285C108.162 3.8684 108.623 3.75118 109.17 3.75118C109.405 3.75118 109.616 3.77462 109.803 3.82151C110.006 3.85277 110.155 3.89185 110.249 3.93874V5.83777H109.475C108.944 5.83777 108.483 5.93155 108.092 6.11911C107.717 6.29104 107.404 6.54112 107.154 6.86934C106.904 7.19757 106.716 7.58832 106.591 8.04159C106.482 8.49485 106.427 8.97938 106.427 9.49517V16.3645H104.364Z" fill="#1E1C2D"/>
<path d="M115.384 16.6459C114.743 16.6459 114.243 16.5286 113.883 16.2942C113.524 16.0441 113.266 15.7237 113.11 15.3329C112.953 14.9266 112.875 14.4967 112.875 14.0435V5.76744H111.281V4.03252H112.922L113.297 0.586121H114.938V4.03252H117.259V5.76744H114.938V13.7387C114.938 14.1294 115.009 14.4264 115.149 14.6296C115.29 14.8172 115.556 14.9109 115.947 14.9109H117.259V16.2707C117.103 16.3489 116.916 16.4114 116.697 16.4583C116.478 16.5052 116.251 16.5443 116.017 16.5755C115.798 16.6224 115.587 16.6459 115.384 16.6459Z" fill="#1E1C2D"/>
<path d="M54.0331 37.7345V21.6279H65.9431C66.8027 21.6279 67.5764 21.7998 68.2641 22.1437C68.9518 22.4719 69.4911 22.933 69.8818 23.5269C70.2882 24.1208 70.4914 24.8164 70.4914 25.6135C70.4914 26.2543 70.3663 26.8248 70.1163 27.325C69.8818 27.8251 69.5614 28.2393 69.155 28.5675C68.7486 28.8958 68.2954 29.138 67.7952 29.2943V29.3881C68.3892 29.5132 68.9206 29.7476 69.3895 30.0915C69.874 30.4353 70.2491 30.8808 70.5148 31.4278C70.7962 31.9592 70.9368 32.5922 70.9368 33.3269C70.9368 34.2959 70.7102 35.1087 70.2569 35.7651C69.8193 36.4216 69.2253 36.9139 68.4751 37.2421C67.7249 37.5704 66.8887 37.7345 65.9665 37.7345H54.0331ZM57.9484 34.6632H65.0053C65.5523 34.6632 66.0056 34.5147 66.3651 34.2178C66.7246 33.9208 66.9043 33.4519 66.9043 32.8111C66.9043 32.4672 66.8262 32.1546 66.6699 31.8733C66.5292 31.5919 66.3104 31.3809 66.0134 31.2403C65.7164 31.084 65.3335 31.0058 64.8646 31.0058H57.9484V34.6632ZM57.9484 28.0752H64.5833C64.9896 28.0752 65.3335 28.0049 65.6148 27.8642C65.8962 27.7079 66.1072 27.5047 66.2479 27.2546C66.4042 26.9889 66.4823 26.692 66.4823 26.3637C66.4823 25.8011 66.3182 25.379 65.99 25.0977C65.6617 24.8007 65.2319 24.6523 64.7005 24.6523H57.9484V28.0752Z" fill="#0D0B1A"/>
<path d="M78.9872 38.0158C77.3461 38.0158 76.0957 37.6173 75.236 36.8201C74.392 36.023 73.97 34.7882 73.97 33.1158V25.379H77.5336V32.5532C77.5336 33.0221 77.5961 33.4206 77.7212 33.7489C77.8619 34.0771 78.0494 34.3428 78.2839 34.546C78.5183 34.7492 78.8075 34.8977 79.1513 34.9914C79.4952 35.0852 79.8703 35.1321 80.2767 35.1321C80.9019 35.1321 81.4724 35.0071 81.9881 34.757C82.5196 34.4913 82.9416 34.1318 83.2542 33.6785C83.5668 33.2096 83.7231 32.6704 83.7231 32.0608V25.379H87.3101V37.7345H84.403L84.1451 35.7417H83.9575C83.5511 36.2887 83.0744 36.7264 82.5274 37.0546C81.996 37.3828 81.4255 37.6251 80.8159 37.7814C80.222 37.9377 79.6124 38.0158 78.9872 38.0158Z" fill="#0D0B1A"/>
<path d="M96.8568 38.0158C95.9502 38.0158 95.0906 37.9377 94.2778 37.7814C93.4651 37.6251 92.7461 37.3906 92.1209 37.078C91.5113 36.7654 91.0268 36.3747 90.6673 35.9058C90.3078 35.4213 90.1281 34.8586 90.1281 34.2178C90.1281 34.1396 90.1281 34.0771 90.1281 34.0302C90.1437 33.9677 90.1593 33.9052 90.175 33.8426H93.7855C93.7855 33.8739 93.7777 33.913 93.762 33.9599C93.762 33.9911 93.762 34.0224 93.762 34.0536C93.7777 34.4288 93.9262 34.7335 94.2075 34.968C94.5045 35.1868 94.8874 35.3509 95.3563 35.4603C95.8408 35.5541 96.3488 35.601 96.8802 35.601C97.396 35.601 97.8961 35.5697 98.3807 35.5072C98.8652 35.4291 99.2638 35.304 99.5764 35.1321C99.889 34.9445 100.045 34.6788 100.045 34.335C100.045 33.9442 99.8577 33.6629 99.4826 33.491C99.1075 33.319 98.5839 33.1862 97.9118 33.0924C97.2397 32.983 96.466 32.858 95.5907 32.7173C94.903 32.6079 94.2544 32.4672 93.6448 32.2953C93.0352 32.1233 92.496 31.9045 92.0271 31.6388C91.5582 31.3575 91.1909 31.0058 90.9252 30.5838C90.6595 30.1462 90.5267 29.6069 90.5267 28.9661C90.5267 28.2784 90.6829 27.6923 90.9955 27.2077C91.3238 26.7076 91.777 26.309 92.3554 26.0121C92.9337 25.6995 93.6214 25.4728 94.4185 25.3322C95.2156 25.1759 96.0909 25.0977 97.0443 25.0977C97.904 25.0977 98.7011 25.1759 99.4357 25.3322C100.186 25.4728 100.842 25.6916 101.405 25.9886C101.983 26.2699 102.429 26.6294 102.741 27.0671C103.07 27.5047 103.234 28.0127 103.234 28.591C103.234 28.6535 103.234 28.7238 103.234 28.802C103.234 28.8645 103.226 28.9192 103.21 28.9661H99.6233V28.8254C99.6233 28.5285 99.4982 28.2862 99.2481 28.0986C99.0137 27.8955 98.6933 27.747 98.2869 27.6532C97.8961 27.5594 97.4663 27.5125 96.9974 27.5125C96.7786 27.5125 96.5051 27.5282 96.1769 27.5594C95.8643 27.575 95.5438 27.6219 95.2156 27.7001C94.903 27.7782 94.6373 27.8876 94.4185 28.0283C94.1997 28.1534 94.0903 28.3409 94.0903 28.591C94.0903 28.9036 94.2622 29.138 94.6061 29.2943C94.9655 29.4506 95.4266 29.5757 95.9893 29.6695C96.5676 29.7476 97.1928 29.8414 97.8649 29.9508C98.5839 30.0602 99.2872 30.1852 99.9749 30.3259C100.678 30.4666 101.296 30.6698 101.827 30.9355C102.374 31.2012 102.812 31.5685 103.14 32.0374C103.468 32.5063 103.632 33.1237 103.632 33.8895C103.632 34.6554 103.468 35.304 103.14 35.8355C102.812 36.3669 102.351 36.7967 101.757 37.1249C101.163 37.4375 100.452 37.6642 99.6233 37.8048C98.7949 37.9455 97.8727 38.0158 96.8568 38.0158Z" fill="#0D0B1A"/>
<path d="M106.477 23.5035V20.7604H110.064V23.5035H106.477ZM106.477 37.7345V25.379H110.064V37.7345H106.477Z" fill="#0D0B1A"/>
<path d="M113.56 37.7345V25.379H116.467L116.725 27.3719H116.936C117.342 26.8248 117.811 26.3872 118.342 26.0589C118.874 25.7307 119.444 25.4885 120.054 25.3322C120.679 25.1759 121.296 25.0977 121.906 25.0977C123 25.0977 123.914 25.2774 124.649 25.6369C125.399 25.9808 125.962 26.5122 126.337 27.2312C126.712 27.9502 126.9 28.8723 126.9 29.9977V37.7345H123.336V30.5604C123.336 30.0915 123.274 29.6929 123.149 29.3647C123.023 29.0364 122.836 28.7707 122.586 28.5675C122.351 28.3644 122.062 28.2159 121.718 28.1221C121.39 28.0283 121.015 27.9814 120.593 27.9814C119.968 27.9814 119.39 28.1143 118.858 28.38C118.342 28.6301 117.928 28.9896 117.616 29.4584C117.303 29.9117 117.147 30.4431 117.147 31.0527V37.7345H113.56Z" fill="#0D0B1A"/>
<path d="M137.384 38.0158C135.821 38.0158 134.476 37.7892 133.351 37.3359C132.226 36.867 131.358 36.1559 130.749 35.2024C130.139 34.249 129.834 33.0377 129.834 31.5685C129.834 30.1149 130.131 28.9114 130.725 27.958C131.319 26.9889 132.171 26.2699 133.281 25.8011C134.39 25.3322 135.711 25.0977 137.243 25.0977C138.822 25.0977 140.15 25.3322 141.229 25.8011C142.323 26.2699 143.143 26.9655 143.69 27.8876C144.253 28.8098 144.534 29.9586 144.534 31.334V32.3656H133.562C133.593 33.0846 133.765 33.6785 134.078 34.1474C134.39 34.6007 134.828 34.9367 135.391 35.1556C135.969 35.3587 136.649 35.4603 137.43 35.4603C137.806 35.4603 138.189 35.4213 138.579 35.3431C138.97 35.2493 139.33 35.1243 139.658 34.968C139.986 34.7961 140.259 34.5851 140.478 34.335C140.697 34.0693 140.822 33.7645 140.853 33.4206H144.464C144.464 34.1083 144.3 34.7335 143.972 35.2962C143.643 35.8589 143.167 36.3434 142.541 36.7498C141.916 37.1562 141.166 37.4688 140.291 37.6876C139.431 37.9064 138.462 38.0158 137.384 38.0158ZM133.562 30.1852H140.76C140.76 29.7632 140.674 29.3959 140.502 29.0833C140.33 28.7551 140.088 28.4894 139.775 28.2862C139.462 28.083 139.095 27.9267 138.673 27.8173C138.267 27.7079 137.821 27.6532 137.337 27.6532C136.602 27.6532 135.961 27.7548 135.414 27.958C134.883 28.1455 134.461 28.4347 134.148 28.8254C133.836 29.2006 133.64 29.6538 133.562 30.1852Z" fill="#0D0B1A"/>
<path d="M153.556 38.0158C152.649 38.0158 151.79 37.9377 150.977 37.7814C150.164 37.6251 149.445 37.3906 148.82 37.078C148.21 36.7654 147.726 36.3747 147.366 35.9058C147.007 35.4213 146.827 34.8586 146.827 34.2178C146.827 34.1396 146.827 34.0771 146.827 34.0302C146.843 33.9677 146.858 33.9052 146.874 33.8426H150.484C150.484 33.8739 150.477 33.913 150.461 33.9599C150.461 33.9911 150.461 34.0224 150.461 34.0536C150.477 34.4288 150.625 34.7335 150.907 34.968C151.203 35.1868 151.586 35.3509 152.055 35.4603C152.54 35.5541 153.048 35.601 153.579 35.601C154.095 35.601 154.595 35.5697 155.08 35.5072C155.564 35.4291 155.963 35.304 156.275 35.1321C156.588 34.9445 156.744 34.6788 156.744 34.335C156.744 33.9442 156.557 33.6629 156.182 33.491C155.806 33.319 155.283 33.1862 154.611 33.0924C153.939 32.983 153.165 32.858 152.29 32.7173C151.602 32.6079 150.953 32.4672 150.344 32.2953C149.734 32.1233 149.195 31.9045 148.726 31.6388C148.257 31.3575 147.89 31.0058 147.624 30.5838C147.359 30.1462 147.226 29.6069 147.226 28.9661C147.226 28.2784 147.382 27.6923 147.695 27.2077C148.023 26.7076 148.476 26.309 149.054 26.0121C149.633 25.6995 150.32 25.4728 151.118 25.3322C151.915 25.1759 152.79 25.0977 153.743 25.0977C154.603 25.0977 155.4 25.1759 156.135 25.3322C156.885 25.4728 157.541 25.6916 158.104 25.9886C158.682 26.2699 159.128 26.6294 159.44 27.0671C159.769 27.5047 159.933 28.0127 159.933 28.591C159.933 28.6535 159.933 28.7238 159.933 28.802C159.933 28.8645 159.925 28.9192 159.909 28.9661H156.322V28.8254C156.322 28.5285 156.197 28.2862 155.947 28.0986C155.713 27.8955 155.392 27.747 154.986 27.6532C154.595 27.5594 154.165 27.5125 153.696 27.5125C153.478 27.5125 153.204 27.5282 152.876 27.5594C152.563 27.575 152.243 27.6219 151.915 27.7001C151.602 27.7782 151.336 27.8876 151.118 28.0283C150.899 28.1534 150.789 28.3409 150.789 28.591C150.789 28.9036 150.961 29.138 151.305 29.2943C151.665 29.4506 152.126 29.5757 152.688 29.6695C153.267 29.7476 153.892 29.8414 154.564 29.9508C155.283 30.0602 155.986 30.1852 156.674 30.3259C157.377 30.4666 157.995 30.6698 158.526 30.9355C159.073 31.2012 159.511 31.5685 159.839 32.0374C160.167 32.5063 160.331 33.1237 160.331 33.8895C160.331 34.6554 160.167 35.304 159.839 35.8355C159.511 36.3669 159.05 36.7967 158.456 37.1249C157.862 37.4375 157.151 37.6642 156.322 37.8048C155.494 37.9455 154.572 38.0158 153.556 38.0158Z" fill="#0D0B1A"/>
<path d="M169.224 38.0158C168.318 38.0158 167.458 37.9377 166.646 37.7814C165.833 37.6251 165.114 37.3906 164.489 37.078C163.879 36.7654 163.394 36.3747 163.035 35.9058C162.676 35.4213 162.496 34.8586 162.496 34.2178C162.496 34.1396 162.496 34.0771 162.496 34.0302C162.511 33.9677 162.527 33.9052 162.543 33.8426H166.153C166.153 33.8739 166.145 33.913 166.13 33.9599C166.13 33.9911 166.13 34.0224 166.13 34.0536C166.145 34.4288 166.294 34.7335 166.575 34.968C166.872 35.1868 167.255 35.3509 167.724 35.4603C168.209 35.5541 168.716 35.601 169.248 35.601C169.764 35.601 170.264 35.5697 170.748 35.5072C171.233 35.4291 171.631 35.304 171.944 35.1321C172.257 34.9445 172.413 34.6788 172.413 34.335C172.413 33.9442 172.225 33.6629 171.85 33.491C171.475 33.319 170.952 33.1862 170.279 33.0924C169.607 32.983 168.834 32.858 167.958 32.7173C167.271 32.6079 166.622 32.4672 166.013 32.2953C165.403 32.1233 164.864 31.9045 164.395 31.6388C163.926 31.3575 163.559 31.0058 163.293 30.5838C163.027 30.1462 162.894 29.6069 162.894 28.9661C162.894 28.2784 163.051 27.6923 163.363 27.2077C163.691 26.7076 164.145 26.309 164.723 26.0121C165.301 25.6995 165.989 25.4728 166.786 25.3322C167.583 25.1759 168.459 25.0977 169.412 25.0977C170.272 25.0977 171.069 25.1759 171.803 25.3322C172.554 25.4728 173.21 25.6916 173.773 25.9886C174.351 26.2699 174.797 26.6294 175.109 27.0671C175.437 27.5047 175.601 28.0127 175.601 28.591C175.601 28.6535 175.601 28.7238 175.601 28.802C175.601 28.8645 175.594 28.9192 175.578 28.9661H171.991V28.8254C171.991 28.5285 171.866 28.2862 171.616 28.0986C171.381 27.8955 171.061 27.747 170.655 27.6532C170.264 27.5594 169.834 27.5125 169.365 27.5125C169.146 27.5125 168.873 27.5282 168.545 27.5594C168.232 27.575 167.912 27.6219 167.583 27.7001C167.271 27.7782 167.005 27.8876 166.786 28.0283C166.567 28.1534 166.458 28.3409 166.458 28.591C166.458 28.9036 166.63 29.138 166.974 29.2943C167.333 29.4506 167.794 29.5757 168.357 29.6695C168.935 29.7476 169.56 29.8414 170.233 29.9508C170.952 30.0602 171.655 30.1852 172.343 30.3259C173.046 30.4666 173.663 30.6698 174.195 30.9355C174.742 31.2012 175.179 31.5685 175.508 32.0374C175.836 32.5063 176 33.1237 176 33.8895C176 34.6554 175.836 35.304 175.508 35.8355C175.179 36.3669 174.718 36.7967 174.124 37.1249C173.53 37.4375 172.819 37.6642 171.991 37.8048C171.163 37.9455 170.24 38.0158 169.224 38.0158Z" fill="#0D0B1A"/>
</svg>
